<svg width="50" height="50" viewBox="0 0 13.23 13.23" xml:space="preserve" xmlns="http://www.w3.org/2000/svg"><g transform="matrix(.265 0 0 .265 2.32 -12.16)"><circle cx="16.23" cy="70.95" r="1"/><path d="m37.47 64.38-2.55-1.12a36.94 36.94 0 0 1-10.27-6.7 12.67 12.67 0 0 0-16.85 0 36.87 36.87 0 0 1-10.26 6.7l-2.56 1.12c-3.49 1.51-4.81 7.61-2.82 10.85l1.47 2.37a3.06 3.06 0 0 0-.32 2.9c.3.69.85 1.2 1.53 1.44.66.22 1.37.15 2-.2.45-.26.93-.49 1.39-.72 1.61 4.29 9.04 7.53 18 7.53 8.95 0 16.38-3.24 18-7.53.46.24.93.46 1.4.72a2.48 2.48 0 0 0 1.98.2 2.53 2.53 0 0 0 1.53-1.45c.4-.95.25-2.05-.32-2.89l1.48-2.37c1.99-3.24.66-9.34-2.83-10.85Zm-26.52 1.3a.92.92 0 0 1 1.3 0 5.68 5.68 0 0 0 3.05 1.6v-3.74h-.93a.93.93 0 0 1-.92-.92c0-.51.42-.93.92-.93h.93v-.17a2.77 2.77 0 0 1 .93-5.38A2.79 2.79 0 0 1 19 58.9c0 1.2-.77 2.23-1.85 2.61v.17h.93a.93.93 0 0 1 0 1.85h-.93v3.74a5.7 5.7 0 0 0 3.05-1.6.92.92 0 1 1 1.3 1.3 7.44 7.44 0 0 1-5.28 2.22c-1.91 0-3.8-.74-5.29-2.22a.92.92 0 0 1 0-1.3zm26.5 14.07a.74.74 0 0 1-.43.43.58.58 0 0 1-.5-.06 40.83 40.83 0 0 0-40.59 0 .58.58 0 0 1-.49.06.74.74 0 0 1-.42-.43c-.22-.5.02-1.18.48-1.44a41.72 41.72 0 0 1 41.45 0c.47.26.7.95.49 1.44z"/></g></svg>