<svg width="50" height="50" viewBox="0 0 13.23 13.23" xml:space="preserve" xmlns="http://www.w3.org/2000/svg"><path fill-rule="evenodd" clip-rule="evenodd" d="M9.29.47a1.6 1.6 0 0 1 2.25 0l1.22 1.22a1.6 1.6 0 0 1 0 2.25l-8.55 8.55a.44.44 0 0 1-.23.12l-3.46.61a.44.44 0 0 1-.51-.5l.6-3.47a.44.44 0 0 1 .13-.23zm1.63.62a.71.71 0 0 0-1 0l-.3.3 2.22 2.23.3-.3a.71.71 0 0 0 0-1zm.3 3.15L8.99 2l-.4.4 2.23 2.22zM10.2 5.26l-.8-.8-5.8 5.8.4 1.2Zm-7 6.6-2.22.38.4-2.2 1.36.45Zm-.23-2.22 5.8-5.8-.8-.81-6.2 6.2Z" fill="#ff0000"/></svg>