<svg width="50" height="50" viewBox="0 0 13.23 13.23" xml:space="preserve" xmlns="http://www.w3.org/2000/svg"><path d="M3.9 8.75h-.98a.39.39 0 0 1-.4-.38V6.03c0-.21.18-.39.4-.39h.97v-.2c0-.64.52-1.16 1.17-1.16h.2v-.39a.39.39 0 1 1 .77 0v.39H7.2V.38a.39.39 0 1 1 .78 0v3.9h.2c.64 0 1.16.52 1.16 1.17v6.61c0 .65-.52 1.17-1.17 1.17H5.06c-.65 0-1.17-.52-1.17-1.17zm.77-3.3v6.61c0 .22.17.4.39.4h3.11c.22 0 .39-.18.39-.4V5.45c0-.22-.17-.4-.39-.4H5.06a.39.39 0 0 0-.4.4zm-1.36.97v1.56h.58V6.42zm2.33 3.9a.39.39 0 1 1 0-.79.39.39 0 0 1 0 .78zm1.95 0a.39.39 0 1 1 0-.79.39.39 0 0 1 0 .78zm-1.95 1.55a.39.39 0 1 1 0-.78.39.39 0 0 1 0 .78zm1.95 0a.39.39 0 1 1 0-.78.39.39 0 0 1 0 .78zm-.98-.78a.39.39 0 1 1 0-.78.39.39 0 0 1 0 .78zm-.97-5.45H7.6c.21 0 .39.18.39.4v2.33c0 .21-.18.38-.4.38H5.65a.39.39 0 0 1-.39-.38V6.03c0-.21.18-.39.4-.39zm.4.78v1.56H7.2V6.42z"/></svg>