<svg width="100" height="400" viewBox="0 0 26.46 105.83" xmlns="http://www.w3.org/2000/svg"><path d="M14.4 12.45a.1.1 0 0 0 .03.05.14.14 0 0 0 .18.17.66.66 0 0 1 .24 0 .22.22 0 0 0 .18-.03.16.16 0 0 0 .04-.04 2.55 2.55 0 0 0 .47 0c.13 0 .13-.2 0-.2a1.92 1.92 0 0 1-.46 0 .1.1 0 0 0-.03 0 .19.19 0 0 0-.06-.05.61.61 0 0 0-.23-.02h-.26a.1.1 0 0 0-.05.01.27.27 0 0 0-.06-.2.12.12 0 0 0-.1-.04c-.07.01-.13.07-.19.19l-.01.03.03.01a2.4 2.4 0 0 1 .28.12zM14.34 12.9a.11.11 0 0 1 .03 0v.01h.12v-.02a1.26 1.26 0 0 0 .03-.15v-.03h-.02a8.32 8.32 0 0 1-.1-.06 2.15 2.15 0 0 0-.43-.18h-.02l-.01.01a5.1 5.1 0 0 0-.06.07.33.33 0 0 0-.02.03l-.02.03.03.02a1.55 1.55 0 0 0 .47.26zM13.97 13.64l.04.02.01-.04.1-.36.01-.1h-.16a.32.32 0 0 0-.12.27.25.25 0 0 0 .12.2zM14.45 14.31a.3.3 0 0 0 .03-.28l-.02-.04-.03.04c-.24.17-.56.15-.86.14l-.14-.01a2.77 2.77 0 0 1-.98-.18h-.03l-.01.02a.5.5 0 0 0-.08.25v.03h.02a3.88 3.88 0 0 0 1.04.09h.05c.08 0 .17 0 .27.02l.32.02a.77.77 0 0 0 .41-.1z"/><path d="M13.15 13.82h-.02c-.05 0-.1 0-.15.02-.12.01-.24.03-.35.06l-.12.03.11.03a3.16 3.16 0 0 0 .94.12h.13a5 5 0 0 0 .16 0 .92.92 0 0 0 .51-.1l.05-.04-.05-.03a1.32 1.32 0 0 0-.51-.08h-.27l-.43-.01ZM14.48 13.12v-.03h-.15v.03l-.05.2-.08.31v.04h.03a.58.58 0 0 1 .27.1.12.12 0 0 1 .02 0l.07.08v-.09a5.9 5.9 0 0 0-.1-.64zM14.65 14.63a.59.59 0 0 0 .43-.16l.04-.03-.05-.02a2.03 2.03 0 0 0-.4-.09h-.03l-.02.03-.02.05a.1.1 0 0 1-.02.02.13.13 0 0 1-.02.02.58.58 0 0 1-.17.09l-.12.04.12.02a1.27 1.27 0 0 0 .26.03zM9.2 12.63v.02a.82.82 0 0 1 .01.1v.03h.03c.41 0 .83-.03 1.23-.05l.87-.03h.04v-.04a.21.21 0 0 0-.04-.12.52.52 0 0 0-.1-.1l-.07-.04-.1-.08h-.52l-.07-.41h.01a.16.16 0 0 0-.02-.3.24.24 0 0 0-.32.1.16.16 0 0 0 .13.22l.06.39h-.05v.15a.09.09 0 0 1 0 .02.08.08 0 0 1-.08.07h-.62l-.28-.01h-.02a.97.97 0 0 0-.08.06zM9.18 12.41v-.02l-.06-.32v-.03h-.03a2.47 2.47 0 0 0-.34.02h-.01l-.01.01a.04.04 0 0 1-.02.02h-.02v.03c0 .1 0 .2.02.32v.03H9.05a.14.14 0 0 1 .03 0h.03a.84.84 0 0 1 .05-.05zM12.41 13.3v.02a1.13 1.13 0 0 1 .01.15v.03h.03l.27.02a.1.1 0 0 1 .02 0h.01a.08.08 0 0 1 .1.1v.06l.1-.02.15-.02h.02a.1.1 0 0 1 .02 0h.71l-.03-.04a.4.4 0 0 1 0-.4l.04-.05H13.18a5.14 5.14 0 0 0-.75 0l-.05.02.03.04a.07.07 0 0 1 0 .09zM9.8 14.23h.06l-.02-.05a4.25 4.25 0 0 0-.3-.61c-.09-.15-.18-.3-.25-.47l-.06-.14v.16l-.02.46-.02.56v.03h.03l.36.04c.08 0 .15 0 .23.02zM12.2 13.68h-.03v.38l.06-.11.06-.1a.1.1 0 0 1 .05-.03h.01v-.01a.1.1 0 0 1 .05-.03l.1-.03.2-.06h-.21l-.29-.01ZM9.97 14.19c.44-.05.89-.14 1.32-.22a1.1 1.1 0 0 1 .04-.37.14.14 0 0 1 .02-.05.11.11 0 0 1 .11-.07l.75-.01a1 1 0 0 0-.04-.23 1.02 1.02 0 0 0-.4-.34c-.8 0-1.6.07-2.4.09.16.41.45.77.6 1.2zM8.62 13.18v-.03l.01-.13a.04.04 0 0 1 0-.01l.01-.05H8.6l-.97.01h-.04v.04l.01.12v.03h.04l.75.02h.2z"/><path d="M14.7 14.22a1.89 1.89 0 0 1 .52.14.07.07 0 0 1 .02.1c-.3.41-.83.29-1.25.14l-.4-.02c-.44 0-.93.03-1.35-.1a.14.14 0 0 1-.04-.03 5.72 5.72 0 0 1-.82-.07.1.1 0 0 1-.09-.07.12.12 0 0 1 0-.08c-.47.07-.93.17-1.4.21a.12.12 0 0 1-.03 0 .08.08 0 0 1-.02 0c-.4-.04-.78-.04-1.16-.16a1.1 1.1 0 0 1-.66.04.65.65 0 0 1-.03.08.1.1 0 0 1-.04.05.12.12 0 0 1-.07.05l-.39.14.84.13a.07.07 0 0 1 0-.02l.01-.05a2.3 2.3 0 0 1-.1-.03.07.07 0 0 1 .04-.14c.86.24 1.79.2 2.67.25.84.06 1.71 0 2.56.08.09.01.1.16 0 .15l-.14-.01v.09c0 .08-.17.08-.17 0v-.1a13.9 13.9 0 0 0-.72-.03v.07a.07.07 0 0 1-.15 0v-.07l-.85-.01V15c0 .1-.14.1-.14 0v-.06c-.18 0-.36 0-.54-.02a.07.07 0 0 1-.14-.01.12.12 0 0 0-.02 0l-.57-.03a.47.47 0 0 0 0 .1q.8.08 1.61.13c1.3.08 2.6.1 3.91.22 1.31.11 2.68.14 3.98-.07-.5-.65-1.63-.86-2.39-1.01A13.2 13.2 0 0 0 14.7 14a.55.55 0 0 1 0 .21zm3.57.95h-.17v.06a.07.07 0 0 1-.14 0 .3.3 0 0 0 0-.06l-.84.01v.02c.04.09-.1.12-.14.04a.18.18 0 0 1 0-.06h-.75c.04.07-.05.15-.11.09a.15.15 0 0 1-.05-.09h-.42v.07c0 .08-.16.08-.16 0v-.07a.04.04 0 0 1 0-.01l-.53-.04v.04a.07.07 0 0 1-.15 0v-.05l-.41-.04c-.1-.01-.09-.16 0-.15 1.28.16 2.57.1 3.87.1.09 0 .09.14 0 .14zm-.01-.32a.06.06 0 0 1-.05.1c-.14.02-.5.08-.6-.08a.07.07 0 0 1-.02-.06c-.01-.37.7-.34.67.04zm-1.56-.4a.55.55 0 0 1 .32 0h.1a.06.06 0 0 1 .01 0 .03.03 0 0 0 .01.01c.04-.02.11 0 .11.05v.3c.01.02-.02.08-.05.08a1.4 1.4 0 0 1-.5 0 .06.06 0 0 1-.03-.02.07.07 0 0 1-.03-.06c0-.1-.07-.3.06-.36zm-.73-.32c.18-.01.4.1.42.29 0 .1-.06.15-.15.17a.07.07 0 0 1-.08.06 2.9 2.9 0 0 0-.41-.07.08.08 0 0 1-.07-.07.07.07 0 0 1-.01-.02.31.31 0 0 1 .3-.36ZM6.7 14.49a1.48 1.48 0 0 0-.02-.15l-.01-.06-.07.05a1.42 1.42 0 0 0-.1.1l-.05.05.25.05zM6.37 14.47l.01-.02a1 1 0 0 1 .16-.17l.06-.05h-.07l-.33-.05h-.04v.25z"/><path d="M9.95 14.84h-.04a8.27 8.27 0 0 1-1.42-.14h-.03v.03l-.02.05v.03l.03.01c.47.07.96.13 1.45.18h.05l-.01-.04a.75.75 0 0 1 0-.1zM11.5 14.18h.03l.52.06h.03v-.56h-.25l-.28.01h-.03v.03a1.34 1.34 0 0 0-.02.3v.13zM16.76 14.78h.03a1.17 1.17 0 0 0 .15.01 1.3 1.3 0 0 0 .17 0l.03-.01v-.2h-.03a.86.86 0 0 0-.23-.03c-.13.01-.13.15-.12.2zM15.82 14.42a.07.07 0 0 0 .05.03h.03a.5.5 0 0 1 .04.01l.03.01a.52.52 0 0 0 .1.02h.07c.07 0 .1 0 .13-.03a.06.06 0 0 0 0-.07.28.28 0 0 0-.3-.14.3.3 0 0 0-.13.05l-.02.02v.02a.03.03 0 0 1 0 .02v.01a.06.06 0 0 0 0 .05zM8.06 14.07a.86.86 0 0 0 .48 0c0-.15.04-.3.04-.45v-.33c-.3.01-.62 0-.94-.02v.16a.22.22 0 0 1 .03 0 .13.13 0 0 1 .06.02.65.65 0 0 1 .33.62zM7.43 13.62h-.06a.45.45 0 0 0-.22.38.22.22 0 0 0 .14.2.39.39 0 0 0 .15.03.32.32 0 0 0 .18-.06.21.21 0 0 0 .1-.2.41.41 0 0 0-.3-.35zM8.84 13.07H8.8v.26l-.02.28a1.68 1.68 0 0 1-.02.18 1.38 1.38 0 0 0-.03.26v.03h.02a2.48 2.48 0 0 0 .31.07h.04v-.03l.02-.53.02-.5v-.03h-.2l-.11.01z"/><path d="M6.73 14.2h.02l.38.03h.07l-.04-.05a.44.44 0 0 1 .02-.52l.04-.05h-.15l-.27-.02h-.02a.45.45 0 0 0-.22.33.26.26 0 0 0 .1.23l.01.02h.02a.03.03 0 0 1 .03.01zM6.78 14.52v.02h.02l.3.06h.02l.01-.01a.1.1 0 0 1 .03-.03 1.58 1.58 0 0 1 .37-.16l.19-.06h-.2a2.3 2.3 0 0 1-.3-.04 2.44 2.44 0 0 0-.2-.02l-.23-.02h-.05l.01.04a1.48 1.48 0 0 1 .03.22zM8.27 9.85l.25-.01.36-.02h.04V9.7h-.03a1.34 1.34 0 0 0-.6-.01h-.07l.02.16zM17.9 14.87a1.4 1.4 0 0 0 .22-.02h.03v-.04c0-.07-.08-.13-.18-.15-.1-.01-.22.01-.26.1v.02c.01.06.07.09.2.09zM4.92 14.1a4.05 4.05 0 0 0-.03-.09l-.03-.09-.08.06-.08.07-.06.04.3.07zM4.23 13.74v.02h.03l.18.02h.05l-.01-.04a.41.41 0 0 1 .07-.34l.03-.04h-.05l-.18-.03H4.3a.41.41 0 0 0-.08.4zM4.77 13.9l-.09-.01-.11-.02h-.05l.01.05.03.08.01.05.04-.03.09-.07z"/><path d="m4.6 13.79.01.01.13.01.04.01v-.04a.4.4 0 0 1 .05-.2.51.51 0 0 1 .08-.13l.05-.05h-.07l-.17-.02h-.05c-.14.16-.16.3-.08.4zM5.13 13.95l.01.02h.02l.36.05.1.02V14a.6.6 0 0 1 .12-.45l.04-.05h-.06l-.32-.02h-.02l-.01.02a.03.03 0 0 1-.02.01c-.13.06-.28.28-.22.44zM5.1 14.05l-.02-.03-.01-.02v-.02l-.02-.02h-.02a.25.25 0 0 1-.03 0h-.05l.05.15.04-.03h.02zM4.87 13.81v.02h.02l.11.03h.04v-.03a.51.51 0 0 1 .18-.33l.04-.03-.04-.02a.15.15 0 0 0-.06-.03h-.04a.32.32 0 0 0-.22.2.26.26 0 0 0-.03.2zM10.96 17.35a14.73 14.73 0 0 1-3.75-.64 12.67 12.67 0 0 1-1.9-.87l-.99-.49-.07-.03.03.07.04.1v.01l.01.01c1.5.93 2.85 1.5 4.16 1.75.28.05.57.08.85.12a9.46 9.46 0 0 1 1.03.15 37.82 37.82 0 0 0 4.1.08l.89-.06c.41-.03.84-.07 1.26-.08a9.51 9.51 0 0 0 1.97-.22l.01-.01.06-.08.07-.1h-.08c-2.2.37-4.72.46-7.69.3Z"/><path d="M17.15 18.5c-.1.08-.21.14-.31.2l-.32.16-.3.12a1.53 1.53 0 0 1-.32.07 2.22 2.22 0 0 1-.59-.02 3.87 3.87 0 0 1-.5-.12 7.35 7.35 0 0 1-.79-.3l-.94-.4a1.23 1.23 0 0 1-.27-.14 1.27 1.27 0 0 1 .29.1l.95.36a7.8 7.8 0 0 0 .79.28 3.98 3.98 0 0 0 .49.11 2.13 2.13 0 0 0 .56.02 1.4 1.4 0 0 0 .29-.07l.3-.12.3-.15c.1-.06.2-.12.3-.2a6.31 6.31 0 0 0 1.09-.94 12.95 12.95 0 0 1-1.55.12c-.72.03-1.43.1-2.15.14a30.9 30.9 0 0 1-3.47-.04c.57.2 1.12.46 1.7.66.72.27 1.47.52 2.22.72.76.2 1.49.16 2.15-.3a5.84 5.84 0 0 0 1.38-1.36l-.09.02a6.4 6.4 0 0 1-1.21 1.09zM4.48 14l-.02-.06-.01-.03h-.03a.45.45 0 0 0-.1.05l-.07.04.25.06zM8.71 10.63v-.03h-.08l.01.24.02.4v.03h.03l.06.01h.04v-.04l-.08-.6ZM15.75 15.59c-1.36-.12-2.71-.15-4.07-.23a42.3 42.3 0 0 1-7.73-1.22l.03.1.29.07c.13.02.25.06.37.1l.35.1.33.09.32.07.3.06.58.1.96.18a47.42 47.42 0 0 0 1.67.3 1.09 1.09 0 0 1 .26.06 1.08 1.08 0 0 1-.27-.02 47.44 47.44 0 0 1-1.67-.24l-.97-.16-.58-.1-.3-.06-.33-.07-.34-.1-.35-.1-.36-.1-.22-.04.04.2.18.61c1.1.5 2.12 1.16 3.29 1.5a15.66 15.66 0 0 0 3.73.56c2.4.08 4.83.1 7.2-.27a.67.67 0 0 1 .03-.1 1.68 1.68 0 0 1 .07-.17l.07-.14.07-.12.22-.35.07-.11.05-.08.05-.05v.07l-.04.09-.05.12-.2.37-.07.12-.06.13-.06.16a.43.43 0 0 0-.02.04c.06 0 .12-.02.17-.03a10.48 10.48 0 0 0 .74-1.42 16.26 16.26 0 0 1-3.75.08zM4.01 13.94l.13.03h.02l.1-.06.1-.06-.1-.01c-.07 0-.13-.02-.2-.03l-.05-.02.02.06a.08.08 0 0 1 0 .05z"/><path d="M5.71 14.33h.02l.13-.08.08-.05.08-.05-.1-.01-.64-.08h-.03a.97.97 0 0 0-.15.08l-.07.04.08.02c.2.05.4.1.6.13zM4.15 13.74v-.04a.53.53 0 0 1 .04-.34l.03-.05-.17-.01h-.01a.33.33 0 0 0-.16.36v.01h.02a1.8 1.8 0 0 0 .2.06zM7.7 12.35l.04.06.02.02v.01a.1.1 0 0 1 .01.02l.01.02h.03a10 10 0 0 1 .44-.01h.04v-.12zM6 14.4l.09.01v-.2l-.05.02-.14.08-.06.05.07.01.1.02zM7.51 12.67v.03a.76.76 0 0 0 0 .16v.03h1.23a1.04 1.04 0 0 1 .19-.02h.05v-.22h-.26c-.38 0-.79-.01-1.18.02zM8.8 11.4v-.04h-.05a.43.43 0 0 0-.04 0h-.04v.03a8 8 0 0 0 .05.56v.03l.12-.01v-.03l-.04-.55ZM8.88 9.58a3.32 3.32 0 0 0-.02-.39.34.34 0 0 0-.23-.31c-.1-.03-.23-.05-.3.05a1.15 1.15 0 0 0-.09.65 1.69 1.69 0 0 1 .64 0zM7.45 12.96l-.01-.01v-.05c-.01-.03-.01-.06-.05-.06h-.04a.04.04 0 0 0-.02-.01H7.3l-.02.01-.1.14-.05.07v.02a1.79 1.79 0 0 1 0 .32v.04h.04l.32.02h.03v-.12a2 2 0 0 0-.02-.33v-.02h-.03a.03.03 0 0 1-.03-.02zM6.81 12.86a.2.2 0 0 1 .12-.24.65.65 0 0 1 .31 0h.02v-.01l.04-.02.01-.01v-.05H7.3a1.23 1.23 0 0 0-.3-.02h-.15l-.15-.01V12.89h.13zM6.56 14.17l-.04-.05a.42.42 0 0 1 .1-.49l.04-.05-.15-.01-.6-.06H5.9a.52.52 0 0 0-.2.5v.04h.03l.77.12zM7.03 13.42h.03v-.03a1.8 1.8 0 0 0 0-.27v-.03h-.03a.12.12 0 0 1-.01 0 2.5 2.5 0 0 0-.58-.02h-.15v.03a2.06 2.06 0 0 0-.06.23v.03l.27.03.53.03z"/><path d="M7.01 12.69c-.12.02-.13.11-.12.18v.03h.03l.08.01h.02l.02-.01.06-.09.05-.08.04-.05h-.06a.46.46 0 0 0-.12 0ZM6.61 12.86v-.36h-.04a.3.3 0 0 0-.12.06v.01l-.01.01a3.4 3.4 0 0 0-.05.28l-.01.04h.23zM5.85 12.87h-.01v.03l-.04.39v.03h.04l.18.02h.03v-.03a1.93 1.93 0 0 1 .08-.31v-.04a.04.04 0 0 1-.02-.02 1.36 1.36 0 0 0 .05-.47c-.01-.13-.21-.13-.2 0a1.26 1.26 0 0 1 0 .13.5.5 0 0 0-.12-.16c-.1-.08-.25.06-.15.14a.65.65 0 0 1 .16.3zM7.62 12a1.08 1.08 0 0 1-.07.1l-.03.01.05.07h.7l-.02-.09-.02-.1v-.04h-.18a.05.05 0 0 0-.02-.02c-.1-.05-.16-.16-.23-.24l-.26-.26c-.05-.04-.12.03-.07.07l.28.29.14.16H7.7a.04.04 0 0 0-.02-.02 1.92 1.92 0 0 1-.36-.39c-.04-.05-.13 0-.09.05a2.01 2.01 0 0 0 .38.4zM8.08 10.38v-.07l.33.02c-.02.58-.04 1.04-.04 1.47v.02a.08.08 0 0 1 .02.05.81.81 0 0 0 .03.18.96.96 0 0 1 .03.13v.17l.01.09v.03h.17v-.04a3.41 3.41 0 0 1-.03-.38.05.05 0 0 1 0-.02h.01a.03.03 0 0 1 .02-.03l.02-.01v-.03c-.05-.37-.07-.76-.09-1.13 0-.24-.02-.49-.04-.73v-.03h-.09v.17a.05.05 0 0 0-.02 0l-.38-.03a.04.04 0 0 0-.05.05v.12a.05.05 0 0 0 .1 0zM8.85 10.23l-.03-.13-.02-.03h-.07v.04l.08.65c.05.38.1.78.1 1.17v.03h.2v-.04l-.07-.49c-.05-.36-.1-.74-.17-1.11h.25a.46.46 0 0 1 .02.11c0 .06.1.07.1 0a.58.58 0 0 0-.03-.16.05.05 0 0 0-.02-.03.05.05 0 0 0-.04-.02h-.28a.05.05 0 0 0-.02 0zM11.97 31.06h-.15l-.01.04a1.39 1.39 0 0 0-.07.37l-.03.21v.06h.12a1.46 1.46 0 0 1 .15-.07h.03v-.04a5 5 0 0 0 .02-.52v-.05zM12.98 31.51l-.01-.44v-.05l-.22.01v.53H12.98zM12.11 31.63l.07-.01a2.37 2.37 0 0 1 .4-.05h.06v-.53h-.1l-.04.01-.32.01h-.05v.05l-.01.45zM11.34 35.05a16.53 16.53 0 0 0 2.57-.4l-.1-.67a.1.1 0 0 1 0-.07 12.61 12.61 0 0 1-.43-1.2.08.08 0 0 1 .05-.1.08.08 0 0 1 .05-.04 7.54 7.54 0 0 1 1-.22 2.85 2.85 0 0 0 .33-.1 3.7 3.7 0 0 1-.4-.64c-.41.01-.82.08-1.23.1-.42 0-.87-.05-1.25.14-.16 1.07-.42 2.13-.59 3.2zM10.94 31.05h-.08l.03.07c.09.2.16.4.23.6l.01.02h.47v-.03a2 2 0 0 0 .05-.28 1.58 1.58 0 0 1 .05-.3l.02-.06h-.07c-.23 0-.47 0-.7-.02zM10.78 31.1l-.05.1-.08.2a2.45 2.45 0 0 1-.13.27l-.05.07h.56l-.02-.06-.19-.48zM10.1 31h-.05v.05a1.4 1.4 0 0 0 .1.65l.01.03h.19l.01-.01a1.55 1.55 0 0 0 .22-.4l.09-.21.03-.07h-.07L10.1 31zM10.4 31.89a.08.08 0 0 1-.06 0l-.82-.04c.5 1.07.9 2.2 1.45 3.23l.17-.01c.17-1.06.42-2.12.59-3.18H10.4zM13.13 31.55l.4-.02h.04v-.05l.01-.48v-.06l-.06.01-.41.05h-.05v.06a4.46 4.46 0 0 1 .02.44v.06zM16.16 34.63l.01.02h.04l.23.03h.04l.02-.04a1.14 1.14 0 0 0 .06-.18v-.04l-.03-.02a2.27 2.27 0 0 1-.45-.23l-.02-.02-.03.01a.76.76 0 0 0-.1.06l-.03.03.02.04.13.18.11.16zM14.24 34.67l.02.02h.03c.08-.03.17-.04.25-.05l.19-.03-.18-.07a2.94 2.94 0 0 1-.28-.12l-.07-.04v.26l.02.01a.09.09 0 0 1 .02.02zM9.95 31H9.9l-.26-.01h-.07l-.02.04a2.56 2.56 0 0 0-.15.62v.05h.05l.53.03h.07l-.02-.07a1.53 1.53 0 0 1-.08-.6zM18.29 34.43v-.03l.05-.16.03-.07h-.08l-.44.07h-.02l-.03.02a.04.04 0 0 1-.04 0h-.01l-.18.03a7.16 7.16 0 0 1-.87.13h-.04v.04a1.08 1.08 0 0 1-.06.17l-.02.08.07-.01a9.4 9.4 0 0 0 1.25-.2l.35-.06z"/><path d="M14.71 35.1h.03a11.43 11.43 0 0 0 1.9.2c.7 0 1.36-.12 1.48-.53l.02-.08-.16.03a10.25 10.25 0 0 1-1.32.2h-.03c-.15 0-.3-.03-.44-.05a4.85 4.85 0 0 0-.78-.06.1.1 0 0 1-.05 0l-.24-.08-.07-.02H15a.57.57 0 0 0-.18.07.23.23 0 0 0-.11.29zM13.66 31.51h.13l.04-.01v-.6l-.15.03v.1l-.01.43zM15.82 34.3h-.04c-.52-.11-1.05-.2-1.52-.27h-.06v.08l.02.02a3.91 3.91 0 0 0 .94.38l.23.07.03.01h.01a3.56 3.56 0 0 1 .5.03l.12.01-.07-.1-.15-.2zM14.37 31.46v-.64h-.08l-.3.06h-.04v.61H14q.16-.02.33-.02zM6.3 31.6l-.01-.01h-.02a.06.06 0 0 1-.02 0 3.42 3.42 0 0 0-.88-.02l-.36.02h-.03l-.15.15-.04.04.06.04.01.01h2.1l-.28-.1-.38-.13zM18.97 35.48h.11a1 1 0 0 0 .1 0 2.15 2.15 0 0 0 .4-.08h.02v-.04a.09.09 0 0 0-.01-.07.45.45 0 0 0-.25-.11 1.55 1.55 0 0 0-.19 0h-.04a.8.8 0 0 0-.38.1.06.06 0 0 0-.03.07c.02.07.25.13.27.13zM4.09 33.64v.06l.06-.01a1.2 1.2 0 0 0 .15-.05l.04-.02v-.05a2.96 2.96 0 0 1 .02-.66v-.05h-.05a.17.17 0 0 0-.13.06l-.03.02a.24.24 0 0 1-.17.04h-.02a.05.05 0 0 1-.05-.02c-.1-.14-.2-.18-.3-.12l-.08.06-.06.06.08.03.55.2h.02a.05.05 0 0 1 .04.02.03.03 0 0 1 0 .03 1.48 1.48 0 0 0-.07.4zM20 35.56a.4.4 0 0 0 .14.04h.03l.01-.01a.04.04 0 0 1 .02 0l.04-.01a.11.11 0 0 0 .02-.01h.1l-.08-.09a.23.23 0 0 0-.05-.04.32.32 0 0 0-.17-.05.37.37 0 0 0-.14.02l-.06.04.07.07a.48.48 0 0 0 .07.04z"/><path d="m18.35 34.7-.07.01c-.05.46-.54.65-.98.68a9.6 9.6 0 0 1-2.64-.16.08.08 0 0 1-.06-.06.09.09 0 0 1-.02-.03.38.38 0 0 1 0-.31l-.3.05a.18.18 0 0 1-.06.03 17.05 17.05 0 0 1-3.36.5.15.15 0 0 1-.09-.02c-1.07-.05-2.18-.37-3.24-.59a12.15 12.15 0 0 1-3.13-1.04c-.08.02-.16.06-.24.07l.2.08c.8.3 1.6.6 2.42.84 1.87.54 3.83.73 5.75 1 2.07.3 4.16.64 6.25.66 1.02.02 2.03.08 3.05.12.5.02 1 .04 1.5.04a2.8 2.8 0 0 0 .53-.05.69.69 0 0 1 .14-.3 12.02 12.02 0 0 0-2.87-.98c-.9-.2-1.84-.53-2.76-.54zm1.5.59a.47.47 0 0 1 .54.1.36.36 0 0 1 .04.06.66.66 0 0 1 .34 0c.17.06.38.23.27.43a.26.26 0 0 1-.06.07 1.01 1.01 0 0 1 .02.25.1.1 0 0 1 0 .02.06.06 0 0 1 0 .02.1.1 0 0 1-.1.1.79.79 0 0 1-.39-.05.1.1 0 0 1-.05-.05.11.11 0 0 1-.04-.07 1.19 1.19 0 0 0-.05-.24.34.34 0 0 1-.15-.2.48.48 0 0 1-.35-.08.28.28 0 0 1-.13-.16.18.18 0 0 1 .1-.2zm-1.13-.17a1.31 1.31 0 0 1 .81-.05.27.27 0 0 1 .08.5 1.41 1.41 0 0 1-.01.3.19.19 0 0 1-.1.08 1.52 1.52 0 0 1-.6-.04.09.09 0 0 1-.06-.1 1.46 1.46 0 0 1-.03-.22l-.05-.02c-.22-.1-.3-.34-.04-.45z"/><path d="m19.46 35.53-.06.02a1.35 1.35 0 0 1-.39.03h-.06l.01.06a.96.96 0 0 0 .02.11v.03h.03a1.35 1.35 0 0 0 .29.04 1.14 1.14 0 0 0 .12 0l.04-.01v-.04a1.14 1.14 0 0 0 0-.18zM24.64 36.13a.25.25 0 0 0-.23.04.69.69 0 0 0-.25.21.1.1 0 0 0 .09.16.1.1 0 0 0 .02 0l.34-.08a.1.1 0 0 0 .07-.08.06.06 0 0 1 .02-.03.1.1 0 0 0 .03-.08.17.17 0 0 0-.09-.14zM20.84 35.96h-.05a.75.75 0 0 1-.2 0h-.06l.02.07v.06l.01.06h.03a.7.7 0 0 0 .21.04h.05v-.05a1.05 1.05 0 0 0 0-.13zM20.6 35.87a.6.6 0 0 0 .09.01.37.37 0 0 0 .2-.05.08.08 0 0 0 .03-.08c-.01-.08-.16-.14-.19-.15-.09-.03-.3-.07-.36.06a.09.09 0 0 0 0 .08c.04.08.2.13.23.13zM10.97 28.67l.02-.02-.02-.02a.32.32 0 0 1-.02-.02h-.01l-.03-.04h-.02c-.15 0-.3.03-.44.04-.23.03-.47.06-.71.07h-.03v.04a10.99 10.99 0 0 0 .67 1.56l.01.04.03-.03a.08.08 0 0 1 .05-.03.07.07 0 0 1 .06.02h.75v-.01l.07-.18.01-.05-.04.01a.95.95 0 0 1-.25.02 2.6 2.6 0 0 0-.33.02l-.14.02a.08.08 0 0 1-.03 0 .07.07 0 0 1-.04-.02.73.73 0 0 1-.17-.32 1.28 1.28 0 0 0-.07-.16.82.82 0 0 1-.08-.22.08.08 0 0 1 .02-.06v-.01a.07.07 0 0 1 .05-.04 1.18 1.18 0 0 1 .2-.05h.02v-.02a.09.09 0 0 1 .01-.03v-.01a.04.04 0 0 1 .02-.02 23.6 23.6 0 0 0 .44-.48zm-.04-.05zM17.6 34.11a2.46 2.46 0 0 1-.21-.29l-.07-.1H17.1l.04.07a3.1 3.1 0 0 0 .29.4l.02.03.2-.04zM4.74 32.32a4.85 4.85 0 0 0-.13 1.18 11.56 11.56 0 0 0 3 .99c1.03.2 2.1.52 3.13.58-.35-.68-.64-1.4-.94-2.1a5.44 5.44 0 0 0-.66-.01.09.09 0 0 1-.07-.04.08.08 0 0 1-.08-.09.26.26 0 0 1 .03-.1.1.1 0 0 1 .09-.1 5.38 5.38 0 0 1 .55.01l-.35-.78c-.62-.04-1.23-.12-1.84-.19-.05.25-.1.49-.18.72a.16.16 0 0 1-.05.07.14.14 0 0 1-.14.1c-.42-.04-.85-.05-1.27-.1-.37-.04-.72-.13-1.09-.17a.19.19 0 0 1 0 .03zM9.7 30.44c.19-.02.37 0 .56 0a11.3 11.3 0 0 1-.72-1.72 4.8 4.8 0 0 1-.99-.04c-.17.68-.45 1.33-.61 2.01a8.34 8.34 0 0 0 1.49.14.09.09 0 0 1 0-.02 1.1 1.1 0 0 0 .06-.15.09.09 0 0 1 .01-.08.26.26 0 0 0 .04-.07.1.1 0 0 1 .1-.06.1.1 0 0 1 .04-.01h.01z"/><path d="m10.39 29.37-.06.02.02.05.05.1a.99.99 0 0 1 .06.13v.03a.8.8 0 0 0 .13.26l.02.03h.02l.11-.02a1.37 1.37 0 0 1 .24-.02h.29l-.22-.1a.87.87 0 0 1-.48-.48l-.02-.03-.05.01a1 1 0 0 0-.11.02zM7.03 31.18a.27.27 0 0 0 .17.15l.05.02.01-.05.05-.27.03-.12a.12.12 0 0 0 .02-.15l.02-.08v-.03l-.07.02a.27.27 0 0 0-.04.01 2.61 2.61 0 0 0-.75-.4c-.18-.06-.25.23-.07.29a2.21 2.21 0 0 1 .6.31v.01a.35.35 0 0 0-.02.3zM5.1 32.05l.68.08 1.22.14h.04l.02-.06.05-.2.01-.06H5.11zM3.95 32.87l.02.01H4a.22.22 0 0 0 .13-.06.3.3 0 0 1 .05-.03.2.2 0 0 1 .14-.03l.05.01v-.05l.08-.41v-.02a.12.12 0 0 1 0-.04l-.01-.12-.08.09a3.21 3.21 0 0 1-.53.44l-.07.06.06.04a.52.52 0 0 1 .12.11zM3.23 32.66l.15.05h.05c.07-.07.15-.12.23-.17l.2-.14a1.37 1.37 0 0 0 .16-.13l.03-.04-.04-.03a.95.95 0 0 0-.6-.26h-.03l-.18.17-.33.32-.05.04.06.04a1.48 1.48 0 0 0 .35.15z"/><path d="m10.73 29.1-.1.12v.03a.85.85 0 0 0 .77.6l.06.01.01-.03a.54.54 0 0 1 .22-.3l.12-.06-.14-.02a.53.53 0 0 1-.39-.22.64.64 0 0 1-.05-.5l.04-.17-.12.11a4.23 4.23 0 0 0-.42.43zM5.87 26.76a.2.2 0 0 0 .18.2l.93.03a10.31 10.31 0 0 1 1.23.07.2.2 0 0 0 .03 0 .2.2 0 0 0 .15-.07l-.02.86a.14.14 0 0 0 .22.13c.67-.02 1.35-.04 2.02-.04a4.73 4.73 0 0 0-.05-.97.58.58 0 0 1 .14.04.22.22 0 0 0 .26-.13h.05v-.25h-.11a.29.29 0 0 0-.08-.05.83.83 0 0 0-.1-.03 1.81 1.81 0 0 1-.05-.5c.01-.18-.28-.18-.3 0a1.65 1.65 0 0 0 .06.47h-.03a.31.31 0 0 0-.1.04 1.43 1.43 0 0 0-1.02-.31.79.79 0 0 0-.59.3q.01-1.06-.02-2.11l.16-.02.02-.16a1.25 1.25 0 0 0 0-.14v-.18l-.19-.01a.65.65 0 0 0-.07 0l-.04-.01v-.75l-.19-.01a1.64 1.64 0 0 0-.19 0h-.2l.01.2.03.42.03.48v.19h.33q.03.96.03 1.91a.2.2 0 0 0-.05-.01c-.3-.02-.61-.02-.91-.02-.31 0-.64 0-.95-.03v-.5a.15.15 0 0 0-.3 0v.5l-.15.02a.2.2 0 0 0-.17.24zM5.1 31.49l.24-.01.4-.02h.22l-.2-.1c-.1-.05-.21-.1-.3-.16l-.04-.02-.02.03-.2.17zM4.64 31.54l.03.04.04-.04a58.48 58.48 0 0 1 .51-.48l.04-.03-.03-.04a.84.84 0 0 0-.37-.24l-.03-.01-.02.02a5.97 5.97 0 0 1-.55.44l-.08.06.09.03a.83.83 0 0 1 .37.25zM10.75 28.33a.98.98 0 0 0-.02-.2.05.05 0 0 0-.05-.05l-1.32.03-.97.02a.05.05 0 0 0-.03 0 .18.18 0 0 1-.03.02.05.05 0 0 0-.02.02.05.05 0 0 0-.03.02v.01a.08.08 0 0 0 0 .03.05.05 0 0 0 0 .02.6.6 0 0 1 0 .17.05.05 0 0 0 0 .02.11.11 0 0 0 .01.02.05.05 0 0 0 .04.03 3.87 3.87 0 0 0 .9.1 10.61 10.61 0 0 0 1.22-.1l.27-.03a.06.06 0 0 0 .04-.02.07.07 0 0 0 0-.05.05.05 0 0 0 0-.02.1.1 0 0 1 0-.04zM6.97 31.6l.04-.1a.43.43 0 0 1-.22-.33v-.03h-.03a.05.05 0 0 0 0-.01l-.2-.11a3.88 3.88 0 0 0-.7-.34l-.03-.01-.02.02a.87.87 0 0 0-.18.3l-.02.04.04.02a8.47 8.47 0 0 0 1.32.54zM23.52 38.03a.14.14 0 0 1-.02 0l-.04-.02-.03.03-.15.16-.02.02.01.03a.1.1 0 0 1 0 .07.13.13 0 0 1-.06.07.09.09 0 0 1-.07 0h-.04l-.02.02-.08.08-.06.06.09.02a.96.96 0 0 0 .22.03.46.46 0 0 0 .27-.07.41.41 0 0 0 .1-.35.18.18 0 0 0-.1-.15zM19.7 39.54c-.26-.02-.54-.03-.8-.06-.58-.07-1.17-.2-1.75-.31-.21-.05-.42-.1-.64-.13-.9-.18-1.81-.38-2.7-.58-.73-.17-1.5-.34-2.25-.49l-.02.1c.92.28 1.89.49 2.82.69l1.38.3c1.18.28 2.38.53 3.55.77l1.83.38h.03l.02-.02c.1-.11.17-.22.24-.33l.05-.06-.07-.02a7.9 7.9 0 0 0-1.69-.24zM4.08 32.13l.04.03.03-.04.18-.2.24-.25.03-.03-.02-.03a.78.78 0 0 0-.49-.27h-.03a5.1 5.1 0 0 0-.51.44l-.07.06.09.02a1.01 1.01 0 0 1 .51.27z"/><path d="M21.83 36.86c-1.02-.04-2.03-.09-3.05-.12-2.13-.07-4.23-.37-6.34-.67-2.04-.3-4.15-.47-6.12-1.12-1.56-.5-3.27-1.02-4.58-2.04a.06.06 0 0 0-.01 0c.18.4.3.83.45 1.23.73.42 1.45.83 2.2 1.2.82.4 1.67.68 2.51 1.02.78.32 1.53.7 2.33.93.83.25 1.68.38 2.53.57 1.74.38 3.47.76 5.2 1.12.92.18 1.81.33 2.74.43.64.07 1.31.06 1.92.28h.01c.13-.03.3-.12.26-.26v-.02a.15.15 0 0 1 .03-.18l.96-1.01a1.98 1.98 0 0 0-.16-.42.16.16 0 0 1 .28-.17 1.8 1.8 0 0 1 .14.32l.19-.2a4.7 4.7 0 0 1 .69-.6c.23-.16.5-.26.69-.48-.4.09-.74.24-1.16.23-.57 0-1.14-.02-1.71-.04zm-8.25-.02-2.14-.27c-.8-.11-1.7-.23-2.62-.4l-.69-.14-.66-.15-.63-.18-.6-.18a17.58 17.58 0 0 1-2.02-.76l-.21-.1-.2-.09-.34-.18-.55-.3a2.98 2.98 0 0 1-.44-.32 3.05 3.05 0 0 1 .48.25l.55.28.36.17.19.08.2.09a20.13 20.13 0 0 0 2.03.72l.6.17a153.63 153.63 0 0 0 1.28.32l.68.14c.92.17 1.8.3 2.61.4.8.13 1.53.23 2.14.32l.43.06.39.04.34.04.28.02a3.1 3.1 0 0 1 .53.05 2.96 2.96 0 0 1-.53.02h-.29l-.34-.02-.39-.03-.44-.05zm7.68 2.47-.34-.01-.2-.01-.24-.02c-.66-.06-1.57-.18-2.58-.3l-.73-.1-.67-.12-1.15-.2a6.3 6.3 0 0 1-1.04-.25 6.22 6.22 0 0 1 1.06.11l1.15.17c.22.04.45.08.68.1l.73.1c1 .13 1.9.27 2.56.36.08 0 .16.02.23.03l.21.03.34.04a.88.88 0 0 1 .28.06.9.9 0 0 1-.29.01z"/><path d="M10.33 37.8a.11.11 0 0 1-.04-.03 11.28 11.28 0 0 1-1.5-.41c-.78-.28-1.52-.67-2.31-.95a25.11 25.11 0 0 1-4.16-1.96 2.26 2.26 0 0 0 .3.46h.01c.7.36 1.31.83 2.03 1.14l2.13.93c1.54.68 3.17.98 4.74 1.55 1.47.54 2.95.94 4.45 1.38.78.23 1.57.46 2.36.63.72.16 1.45.2 2.16.35.16-.2.33-.37.5-.56-1.84-.4-3.68-.75-5.5-1.18-1.74-.4-3.51-.68-5.17-1.35zM2.5 32.54l.07.03v-.08a.13.13 0 0 1 0-.06l.01-.01a.1.1 0 0 1 .03-.06l.08-.08h-.11a3.44 3.44 0 0 0-.44 0l-.2.02.29.12.27.12zM3.92 33.8l.07.02v-.07a1.67 1.67 0 0 1 .05-.44l.01-.04-.04-.02a14.92 14.92 0 0 1-1.52-.6l-.54-.24-.06-.03v.06a1.17 1.17 0 0 1-.04.17l-.01.03.02.02a7.8 7.8 0 0 0 2.06 1.14zM15.2 32.4a2.34 2.34 0 0 0-.35.12 2.68 2.68 0 0 1-.29.1l-.21.05.25.05c.25.05.5.1.76.12h.03l.01-.01a.05.05 0 0 1 .04-.02 7.5 7.5 0 0 0 1.08-.15l.52-.1-.32-.03a14.73 14.73 0 0 0-1.5-.13zM8.23 28.6c-.38.72-.53 1.56-.68 2.37l-.1.5v.05l.05.01.52.06 1.23.12h.05v-.05a2.65 2.65 0 0 1 .15-.62l.02-.06H9.4a7.97 7.97 0 0 1-1.58-.17.04.04 0 0 1-.03-.04v-.02a.04.04 0 0 1 0-.02 10.95 10.95 0 0 1 .32-1.08c.11-.32.22-.66.3-1l.02-.04-.18-.04zM14 32.85a.16.16 0 0 1 .03-.06l.14-.15.11-.12-.16.04-.28.07-.26.06-.05.01.02.05.09.28c.07.23.15.46.25.69l.1.23v-.25a16.3 16.3 0 0 0-.02-.76.1.1 0 0 1 .02-.07zM17.92 33.5v.13h.04a3.48 3.48 0 0 0 .47.08l.38.05.04.01a3.14 3.14 0 0 0 .63.09h.09v-.05a.34.34 0 0 0 0-.07v-.04h-.04a27.2 27.2 0 0 1-.36-.06 9.4 9.4 0 0 0-1.2-.13zM16.89 32.7l.02.05a3.08 3.08 0 0 0 .28.45v.02l.1.02a1.82 1.82 0 0 0 .3.03l.23.01v-.04l.02.05.03.02a.2.2 0 0 1 0 .03l.02.04.04.03h.02l.25.01.15.01-.12-.1a2.5 2.5 0 0 1-.6-.68l-.02-.03h-.09a5.35 5.35 0 0 0-.57.06zM16.28 32.8h-.03a6.53 6.53 0 0 1-.67.1h-.07l.03.07.11.25a2.97 2.97 0 0 0 .45.82.03.03 0 0 1 0 .01v.02l.02.01a2.1 2.1 0 0 0 .47.25h.02a4.92 4.92 0 0 0 .65-.07l.08-.02-.05-.06a4.68 4.68 0 0 1-.3-.49 2.43 2.43 0 0 0-.7-.87z"/><path d="M15.43 32.95h-.03a8.02 8.02 0 0 1-.81-.13l-.2-.04-.03-.01-.02.02c-.05.05-.1.1-.13.15l-.02.01v.02a17.87 17.87 0 0 0 .02.9v.05h.04c.47.08 1 .17 1.52.29h.03l.02-.01a.76.76 0 0 1 .11-.1l.03-.02V34.01a3.66 3.66 0 0 1-.38-.73l-.14-.31zM17.8 33.38h-.04l-.2-.02a1.38 1.38 0 0 1-.25-.02l-.08-.02a1.3 1.3 0 0 0-.3-.04h-.1l.06.07.1.2.02.02h.25l.02.02.01.03H17.58l.18.01h.05v-.04a.47.47 0 0 0 0-.18zM16.8 32.74l-.01-.03h-.04l-.17.04-.18.03.08.07a1.91 1.91 0 0 1 .3.34l.03.04.04-.04a.05.05 0 0 1 .02 0 .6.6 0 0 1 .09 0h.1L17 33.1a3.3 3.3 0 0 1-.2-.37zM14.86 30.73l-.05.01v.6l.06-.03.15-.05.03-.01v-.05c0-.15.02-.3.03-.44v-.06h-.06l-.16.03zM12.46 30.5c.18 0 .35 0 .53-.02h.04v-.06l.02-.05.01-.06h-.41c-.38.01-.78.02-1.17 0h-.05l-.01.03-.03.07-.02.07h.07a44.07 44.07 0 0 1 1.02.02z"/><path d="M11.32 30.62a.09.09 0 0 1-.09-.07.09.09 0 0 1-.02-.1l.02-.08h-.66a1.01 1.01 0 0 1-.05.17.1.1 0 0 1-.02.04.1.1 0 0 1-.07.04c-.24.03-.48-.01-.72.02a.09.09 0 0 1 0 .02l-.04.18a.1.1 0 0 1 .03 0 20.14 20.14 0 0 0 2.8.06 25.24 25.24 0 0 0 2.54-.34.87.87 0 0 0-.07-.11c-.55-.02-1.1-.03-1.65-.08l-.05.14a.1.1 0 0 1-.02.04.1.1 0 0 1-.08.06 14.68 14.68 0 0 1-1.85.01zM11.62 29.8a2.37 2.37 0 0 0-.13.3l-.03.1.06.01.6.02.56-.01H13.09l.03-.1v-.1c0-.1 0-.2-.02-.31v-.03l-.02-.01a.87.87 0 0 0-.47-.06 1.33 1.33 0 0 1-.14 0c-.04 0-.1 0-.15-.02l-.21-.02a.52.52 0 0 0-.49.23zM18.43 34.03V34l.07-.12.03-.06-.11-.01a3.68 3.68 0 0 1-.49-.08h-.03a.06.06 0 0 1-.03 0h-.03l-.3-.01h-.1l.05.07a1.3 1.3 0 0 0 .27.35l.02.02.03-.01a1.56 1.56 0 0 1 .58-.12zM11.47 29.27a.96.96 0 0 0 .47.1H12.18l.02-.04a.48.48 0 0 0-.04-.43.86.86 0 0 0-.6-.4h-.04a.43.43 0 0 0-.23.4.4.4 0 0 0 .18.37zM14.54 31.55l.02.04a3.11 3.11 0 0 0 .32.5l.08.11.02.03h.04l.12-.04h.01a.1.1 0 0 1 .05-.01 9 9 0 0 1 .62.03h.11l-.06-.08a4.27 4.27 0 0 1-.46-.79l-.02-.02h-.03l-.16-.01h-.01a5.02 5.02 0 0 0-.6.22zM14.67 31.39l.03-.01v-.03a3.73 3.73 0 0 0 .01-.44v-.15l-.22.04v.67l.1-.04.08-.04zM12.62 49.81a.46.46 0 0 0-.31.22l-.02.02v.03l.12.34a3.28 3.28 0 0 1 .13.48v.03l.04.01a1.04 1.04 0 0 0 .33.05l.25-.01h.03l.01-.03a.68.68 0 0 0-.1-.99.61.61 0 0 0-.48-.15zM11.71 53.57a.05.05 0 0 1 .03.01l.01.01H12.12l.01-.03a.05.05 0 0 1 .02-.02c.05-.03.1-.07.1-.13 0-.05-.05-.08-.1-.1a.6.6 0 0 0-.32-.07.38.38 0 0 0-.26.14.1.1 0 0 0-.02.11.23.23 0 0 0 .14.07zM12.45 51.25c.12.43.24.86.34 1.29.19.8.34 1.6.57 2.4l1.3-.02c-.45-1.2-1.02-2.38-1.4-3.62a2.3 2.3 0 0 1-.8-.05ZM6.9 53.5l.05.01v-.05a8.78 8.78 0 0 1 .1-.92v-.06l-.11-.01a.52.52 0 0 0-.38.06l-.01.01v.02l-.07.43-.07.42v.06h.05l.43.04zM11.52 54.94V55H12.41v-.06l.01-.48.02-.65v-.04h-.05a2.37 2.37 0 0 0-.7-.04h-.05v.04a3.94 3.94 0 0 0-.12 1.18ZM7.96 50c-.38.1-.7.68-.37.99h.87c.14-.21.26-.5.12-.76a.53.53 0 0 0-.62-.23zM5.6 55.65h.06a1.92 1.92 0 0 1 .55.07l.06.02.01-.07.07-.4c.07-.48.15-.97.2-1.46v-.05H6.5l-.35-.03-.28-.02-.01.05a.03.03 0 0 0 0 .01 6.11 6.11 0 0 0-.26 1.83zM3.37 56.59l.02.07.05.19.02.03.37.07c.3.05.6.1.9.17h.03l.06-.04a2.1 2.1 0 0 0 .2-.21l.08-.09H5a1.84 1.84 0 0 0-.31.02h-.03a.06.06 0 0 1-.04.02H4.6a.07.07 0 0 1-.03 0 5.46 5.46 0 0 1-.42-.1 3.45 3.45 0 0 0-.7-.13zM16.37 57.82l-.01.03-.03.06-.01.04.04.02.18.08a1 1 0 0 1 .43.24l.03.03.03-.01a3.39 3.39 0 0 1 .73-.1h.11l-.07-.09a.32.32 0 0 0-.08-.07 2.46 2.46 0 0 0-1.23-.23zM10.93 54.58h-.05l-.01.04c0 .05-.02.1-.03.14l-.03.2-.02.06h.07l.48-.02h.12l-.07-.08a2.57 2.57 0 0 1 0-.35v-.1l-.08.05a.68.68 0 0 1-.38.06zM17.1 58.42l-.06.01.01.05a1.3 1.3 0 0 1-.1.64 2.6 2.6 0 0 0-.1.37l-.01.06h.06c.3.02.6.02.9.02h.04l.01-.04.06-.37v-.05l-.04-.01a12 12 0 0 1-.52-.13.13.13 0 0 1-.09-.16.13.13 0 0 1 .17-.1l.45.1.06.02v-.07a1.72 1.72 0 0 0-.03-.38v-.05h-.05a3.29 3.29 0 0 0-.77.1zM16.44 58.13l-.1-.04-.06-.02-.02.06a5.09 5.09 0 0 0-.13.72c-.02.18-.04.36-.08.53v.06h.05a5.4 5.4 0 0 0 .57.1h.05v-.05a2.49 2.49 0 0 1 .1-.3 1.16 1.16 0 0 0 .11-.69c-.06-.21-.29-.3-.49-.37z"/><path d="M11.38 53.85a.12.12 0 0 1 .04.01h.01l.04-.2a.24.24 0 0 1-.08-.32.54.54 0 0 1 .43-.28.7.7 0 0 1 .53.16.24.24 0 0 1 .02.34l.13.03a.11.11 0 0 1 .12.11l-.03 1.23h.53c-.24-.84-.38-1.7-.6-2.55-.19-.7-.42-1.43-.53-2.14a7.6 7.6 0 0 0-1.36.02.05.05 0 0 1-.02 0c-.01 1.22-.29 2.4-.4 3.6h1.17zM9.42 59.66l.42.11.37.1c.24.06.49.12.73.2h.02l.06-.04.37-.25.14-.1h-.17l-1.5-.01zM13.92 55.27h-.91a22.03 22.03 0 0 0-3.23.12l-.35.05.35.06a8.44 8.44 0 0 0 1.43.1l.89-.01.87-.02c.44 0 .9-.03 1.33-.06.5-.04 1.03-.08 1.54-.07h.11l-.07-.09a.15.15 0 0 0-.02-.02h-.01l-.02-.01a15.81 15.81 0 0 0-1.91-.05Z"/><path d="M9.35 50.97a3.87 3.87 0 0 1 .15-.95.2.2 0 0 1 .02-.05.2.2 0 0 1 .17-.13c.3-.03.6.03.92.03a.2.2 0 0 1 .05 0c.26-.02.51-.04.76-.04a2.96 2.96 0 0 0-.15-.68c-.68 0-1.36-.06-2.04 0-.09.3-.28.6-.3.92a.04.04 0 0 1 0 .01 1.07 1.07 0 0 1-.03.91l.45-.02zm1.69-1.71c.1 0 .17.04.17.1 0 .06-.08.11-.17.11-.1 0-.18-.05-.18-.1 0-.07.08-.11.18-.11zm-.73 0c.11 0 .2.04.2.1 0 .06-.09.11-.2.11-.12 0-.21-.05-.21-.1 0-.07.1-.11.2-.11zm-.6 0c.11.03.2.1.18.15-.02.06-.1.1-.2.08-.1-.01-.2-.06-.19-.12 0-.06.1-.1.2-.1zM12.74 55.75c-1.01 0-2.04.1-3.04-.08-.3 1.16-.51 2.36-.78 3.53a1.22 1.22 0 0 1 .16.28l2.53.02a.56.56 0 0 1 .07-.12c.39-.51 4.05-.02 4.08-.21.1-.54.1-1.09.36-1.59a.16.16 0 0 1 .18-.1.13.13 0 0 1 .04 0h.22a9.67 9.67 0 0 1-.36-1.09l-.05-.22a.2.2 0 0 1-.04 0h-.13a.2.2 0 1 1 0-.39h.07a1.64 1.64 0 0 0-.06-.15c-1.07-.05-2.17.12-3.25.12Zm-2.7.55H9.9a.2.2 0 0 1 0-.39h.12a.2.2 0 0 1 0 .39zm.78-.14a.2.2 0 0 1-.23.13l-.1-.02a.2.2 0 1 1 .11-.37c.03 0 .06 0 .09.02a.2.2 0 0 1 .13.24zm.5.14h-.25c-.13 0-.13-.39 0-.39h.26a.2.2 0 0 1 0 .39zm1.3 0h-.26a.19.19 0 0 1-.2-.2.19.19 0 0 1-.19.2h-.26c-.12 0-.12-.39 0-.39h.26a.19.19 0 0 1 .2.2.19.19 0 0 1 .2-.2h.25a.2.2 0 0 1 0 .39zm.78 0h-.26a.2.2 0 0 1 0-.39h.26a.2.2 0 0 1 0 .39zm1.42-.13h-.26a.19.19 0 0 1-.2-.2.19.19 0 0 1-.19.2h-.26a.2.2 0 1 1 0-.39h.26a.19.19 0 0 1 .2.2.19.19 0 0 1 .19-.2h.26a.2.2 0 1 1 0 .39zm.64 0h-.13a.2.2 0 1 1 0-.39h.13a.2.2 0 1 1 0 .39zM9.02 48.85l.03-.02a.15.15 0 0 1 .04 0l.09-.02v-.03l.1-.27h.27a3.7 3.7 0 0 1-.05.21l-.02.07h.08c.33-.01.68 0 1.01.01h.2v-.06l-.04-.18.28.02.04.18v.06h.32a.25.25 0 0 1 .04 0l.04.01.02-.02.2-.14.07-.07 1.3.06a.16.16 0 0 0 0-.33L7.6 48.1a.16.16 0 0 0-.01.33l.99.04.02.02a2.34 2.34 0 0 0 .4.33zM10.64 48.17l-.02-.07a3.53 3.53 0 0 1-.06-.43v-.02l-.01-.01a.17.17 0 0 1-.05-.08v-.03h-.04a2.55 2.55 0 0 0-.68 0l-.03.01-.01.04-.08.42-.02.14h.06l.87.03zM17.84 62.07l.02.03h.04a2.35 2.35 0 0 1 .37-.03h.08l-.03-.08a1.6 1.6 0 0 0-.09-.17.51.51 0 0 0-.54-.2h-.1l.05.08a3.18 3.18 0 0 1 .2.37zM25.6 60.37a3.38 3.38 0 0 0-1-.3l-.16-.02-1.2-.21-.43-.07a15.7 15.7 0 0 1-2.14-.58 14.08 14.08 0 0 0-2.43-.63h-.06v.06a.16.16 0 0 0 0 .02V58.88h.05c.3.07.6.11.88.15a.16.16 0 0 1 .14.18.1.1 0 0 1-.13.1l-.88-.14h-.06v.05l-.02.12v.05l.04.01a10 10 0 0 0 1.03.16h.04l.02-.04a.06.06 0 0 1 .05-.04 4.22 4.22 0 0 1 .73.09 5.45 5.45 0 0 0 .6.08.07.07 0 0 1 .05.03.06.06 0 0 1 .02.05v.12l.05.01a37.35 37.35 0 0 1 3.97.7h.01c.28-.02.55-.05.81-.09l.16-.02zM8.56 56.88h.04l.02-.03a.52.52 0 0 0 .05-.21v-.06H8.6a6.54 6.54 0 0 1-1.53-.23h-.03l-.02.02a.28.28 0 0 0-.07.13l-.01.04.03.02c.47.25 1 .3 1.58.32zM23.78 63.46l-.02-.01a.1.1 0 0 1-.07-.12v-.11a1 1 0 0 0 .01-.34l-.03-.17-.07.16a.95.95 0 0 1-.23.37.6.6 0 0 1-.46.14h-.05v.04a.44.44 0 0 0 .05.37.41.41 0 0 0 .34.15.19.19 0 0 1 .04 0l.1.01a.47.47 0 0 0 .3-.07.6.6 0 0 0 .17-.34v-.05l-.04-.01a.13.13 0 0 1-.04-.02Z"/><path d="m19.94 60.02.34.04h.15c.07 0 .14 0 .17-.06a.4.4 0 0 0 .02-.18v-.05h-.05l-.47-.08a5.22 5.22 0 0 0-.62-.08h-.05v.05a.04.04 0 0 1-.03.04l-.03.02v.03l-.02.05-.02.07.04.01a.76.76 0 0 0 .12.05 3.63 3.63 0 0 0 .45.09zm-.52-.27ZM6.35 58.73c.72.1 1.46.26 2.19.3a.1.1 0 0 1 .02 0c.28-1.25.5-2.54.86-3.78a.15.15 0 0 1 .02-.04.15.15 0 0 1 .13-.12c.35-.05.7-.08 1.05-.1v-.03l.1-.48a.11.11 0 0 1 .11-.09.6.6 0 0 0 .4-.03.33.33 0 0 0 .1-.27h-1.3c-.1 0-.12-.13-.06-.2.12-1.21.4-2.41.41-3.64-.18-.01-.35-.03-.53-.03a3.33 3.33 0 0 0-.12.9.17.17 0 0 1-.14.19.2.2 0 0 1-.1.03 16.52 16.52 0 0 1-1.82.04.17.17 0 0 1-.08.03 13.74 13.74 0 0 0-.31 2.25.18.18 0 0 1-.13.18c-.08.5-.13.9-.19.9-.05-.01-.09-.4-.03-.9l-.2-.01c-.09.84-.26 1.67-.36 2.51a.13.13 0 0 1-.17.1 8.59 8.59 0 0 1-.94-.1.9.9 0 0 1-.1.26h.03a.12.12 0 0 1 .09.18.1.1 0 0 1-.02.06 1.66 1.66 0 0 1-.35.4.12.12 0 0 1-.04.02.12.12 0 0 1-.12.04c-.45-.1-.9-.17-1.36-.25a.1.1 0 0 1-.08-.08.1.1 0 0 1-.02-.04 3.13 3.13 0 0 1-.1-.3.11.11 0 0 1 .03-.1.11.11 0 0 1 .11-.12h.03a.35.35 0 0 1 .11-.23.11.11 0 0 1 .13-.01.05.05 0 0 1 .02 0 3.58 3.58 0 0 0 .4.05c.03-.18.13-.34.32-.35a.33.33 0 0 0 0-.07v-.07a9.35 9.35 0 0 0-1.02-.11H3.3l-.04.03a.2.2 0 0 1-.12.02.07.07 0 0 1-.01 0l-.28.01h.02c.5.16.88.28.88.34s-.45.03-.95-.12a5.1 5.1 0 0 1-.87-.3h-.01a1.76 1.76 0 0 0-.12.57.18.18 0 0 1-.14.18.18.18 0 0 1-.16.08h-.38c1.06.66 2.09 1.47 3.27 1.87a11 11 0 0 0 1.96.43zm1.47-5.66a.07.07 0 0 1 0-.01c.08-.34.05-.7.18-1.03a.14.14 0 0 1 .03-.04.1.1 0 0 1 .04-.05v-.01c.56-.5 1.3-.43 1.72.2a.1.1 0 0 1 .01.09.1.1 0 0 1 0 .03c-.07.36-.09.73-.18 1.1a.1.1 0 0 1-.04.07c-.61.47-1.23.34-1.74-.22a.1.1 0 0 1-.02-.13zm-1.03 3.38a1.55 1.55 0 0 1 .1-.53.1.1 0 0 1 .1-.1 1.79 1.79 0 0 1 .39.02 2.7 2.7 0 0 1 .06-.28.1.1 0 0 1 .02-.03.1.1 0 0 1 .1-.1 1.38 1.38 0 0 1 .3.04.11.11 0 0 1 .05.03.11.11 0 0 1 .07.13.17.17 0 0 0 0 .06.12.12 0 0 0 .06.03l.25.02a.1.1 0 0 1 .06.16.01.01 0 0 1 0 .01v.48l.38.02a.11.11 0 0 1 .11.14.17.17 0 0 1 0 .03.69.69 0 0 1-.1.42.11.11 0 0 1-.1.05.1.1 0 0 1-.04.01 3.83 3.83 0 0 1-1.7-.35.04.04 0 0 1-.02-.01.13.13 0 0 1-.1-.07v-.02a.1.1 0 0 1 0-.04.5.5 0 0 1 0-.12zM20.93 65.95c-.42-.1-.86-.2-1.27-.34l-.95-.34a20.5 20.5 0 0 0-3.02-.91 25.43 25.43 0 0 1-3.25-.98 109.5 109.5 0 0 0-4.96-1.82l-.05.1c1.01.44 1.93.83 2.81 1.17 1.58.61 3.21 1.13 4.79 1.63l1.28.4 1.41.46c1.39.46 2.82.93 4.25 1.3l.07.02v-.07a2 2 0 0 1 .01-.28l.01-.04-.04-.02c-.36-.1-.73-.2-1.09-.28zM21.44 62.52a5.37 5.37 0 0 0-.75-.51l-.04-.02-.03.04a.91.91 0 0 0-.19.4l-.03.02.05.04.3.24a2.9 2.9 0 0 0 .73.49l.04.02.02-.04a1.05 1.05 0 0 0 .2-.42v-.03l-.03-.02-.27-.21z"/><path d="M18.82 60.74c-2.34-.16-4.63-.77-6.97-.88a.08.08 0 0 1-.02.01c-.24.18-.5.35-.75.52a.16.16 0 0 1-.2 0 .14.14 0 0 1-.01 0c-.65-.18-1.3-.33-1.94-.52a.18.18 0 0 1-.13-.12.27.27 0 0 1-.05-.08.04.04 0 0 0 0-.01.1.1 0 0 1-.01-.02l-.02-.03-.04-.07-.04-.07-.04-.04v-.01a.2.2 0 0 1-.06 0c-.77-.05-1.54-.2-2.3-.32a8.8 8.8 0 0 1-2.15-.5c-1.21-.51-2.25-1.3-3.37-1.97.26.84.55 1.55 1.32 2.13.25.19.5.37.77.54l.4.18a4.59 4.59 0 0 1 .6.32c.67.27 1.33.57 2 .85.39.17.77.47 1.18.59.37.1.74.22 1.1.36 1.53.56 3.05 1.17 4.58 1.68.8.26 1.6.54 2.4.76.77.22 1.58.33 2.34.6.85.28 1.67.6 2.52.87.7.21 1.42.34 2.12.55.16-.65.58-1.27.9-1.84a.63.63 0 0 1-.36-.29.83.83 0 0 1-.03-.7.34.34 0 0 1 .26-.2c.13.03.28.05.36-.07a3.17 3.17 0 0 0 .22-.47.2.2 0 0 1 .29-.13.58.58 0 0 1 .33.44 5.06 5.06 0 0 1 1.32-1.96c-2.14.25-4.39.05-6.52-.1zm-5.58-.28c-.57-.1-1.02-.24-1-.3 0-.06.47-.02 1.04.09.57.08 1.03.2 1.02.25 0 .06-.48.04-1.06-.04zm5.57 2.6a.56.56 0 0 1-.64 0 .4.4 0 0 1-.44.06 1.04 1.04 0 0 1-.35-.44.87.87 0 0 1-.15-.42.34.34 0 0 1-.25-.14 1.07 1.07 0 0 1-.25-.66.1.1 0 0 1 .09-.1.1.1 0 0 1 .09-.06.85.85 0 0 1 .6.16.1.1 0 0 1 .03 0c.27-.02.57-.07.76.15a2.31 2.31 0 0 1 .3.61 5.33 5.33 0 0 1 .26.66.1.1 0 0 1 0 .07.1.1 0 0 1-.05.12zm2.96.38a.25.25 0 0 1-.12.1.16.16 0 0 1-.18.03c-.53-.18-.88-.6-1.34-.9a.2.2 0 0 1-.02-.32 1.82 1.82 0 0 1 .36-.68.22.22 0 0 1 .05-.04.19.19 0 0 1 .06-.07.2.2 0 0 1 .27.07.44.44 0 0 0 .07.11.2.2 0 0 1 .03.03 11.93 11.93 0 0 1 .97.7.23.23 0 0 1 .04.03.17.17 0 0 1 .12.18 1.33 1.33 0 0 1-.3.76zm2.42-1.83c.12-.16.24-.27.3-.24.05.04 0 .2-.12.37-.13.18-.28.25-.32.22-.05-.04.03-.2.14-.35z"/><path d="M17.48 62.06h.03l.1-.02.08-.02-.04-.06a2.06 2.06 0 0 0-.07-.13.62.62 0 0 0-.61-.35h-.06v.06a.84.84 0 0 0 .2.45.23.23 0 0 0 .17.1.58.58 0 0 0 .12-.02l.05-.01a.07.07 0 0 1 .03 0zM18.45 62.31l-.04-.08-.03-.04h-.04a1.3 1.3 0 0 0-.36.02l-.07.01.03.07.06.15a2.73 2.73 0 0 0 .15.3.38.38 0 0 0 .33.24.46.46 0 0 0 .16-.03l.05-.02-.02-.05a5.92 5.92 0 0 0-.22-.57zM4.56 56.7h.02l.01-.01a.02.02 0 0 1 .01 0l.07-.05a1 1 0 0 0 .16-.14l.08-.09H4.8a6.36 6.36 0 0 1-1.18-.07h-.04l-.02.03a.13.13 0 0 0-.01.05v.05h.05a4.69 4.69 0 0 1 .57.13l.4.1zM18 62.73l-.02-.04-.01-.03-.07-.15a2.9 2.9 0 0 0-.12-.27l-.01-.02a.05.05 0 0 1-.01-.03v-.09l-.08.05a.05.05 0 0 1-.02 0h-.02c-.1.02-.24.04-.23.14a.7.7 0 0 0 .1.24l.02.05.01.02c.08.15.17.32.3.36a.21.21 0 0 0 .07.01.26.26 0 0 0 .13-.03l.04-.03-.02-.05-.07-.13zM5.57 56.2a4.34 4.34 0 0 0 .58.07h.05v-.05l.05-.31v-.05l-.04-.01a1.51 1.51 0 0 0-.46-.07H5.7l-.01.03a.07.07 0 0 1-.02.03l-.08.05-.27.18-.13.08.15.03.22.03zM5.1 54.16c.13.08.26.17.4.24l.07.07.02-.1.04-.2.01-.04-.03-.02-.34-.24h-.02a3.53 3.53 0 0 0-.41-.06H4.8l-.01.04-.02.04-.01.06.03.02.32.2zM4.91 55.4h.05l.02-.05a43.11 43.11 0 0 1 .23-.94v-.04l-.03-.02-.2-.13-.07-.04-.02.08a3.13 3.13 0 0 0-.07.46 2.6 2.6 0 0 1-.1.54l-.02.05.05.02a1.04 1.04 0 0 0 .16.06zM5.57 54.5l-.08.01a.06.06 0 0 1-.05 0 .77.77 0 0 1-.03-.02l-.08-.05-.02.07-.15.64-.07.27-.01.05.04.01.28.11.08.04v-.09a5.23 5.23 0 0 1 .07-.97zM4.8 56.21a.07.07 0 0 1 0 .03v.05H5l.04-.04-.01-.05a2.37 2.37 0 0 0-.1-.2 2.05 2.05 0 0 0-.29-.26l-.07-.05-.02.1a.18.18 0 0 0 0 .02v.06a.05.05 0 0 1-.01.03l-.03.04.05.03a.56.56 0 0 1 .24.24zM4.73 55.46l.1.15.12.17a1.2 1.2 0 0 1 .17.21l.03.04.05-.02.26-.17.07-.05-.08-.04a7.84 7.84 0 0 0-.49-.2zM9.4 53.26c.08-.34.1-.7.17-1.04a.85.85 0 0 0-1.32-.13.1.1 0 0 1-.04.06 8.34 8.34 0 0 0-.16.94c.4.4.86.54 1.35.17zM4.2 56.22l-.01.06h.06l.35.01h.11l-.07-.09a.33.33 0 0 0-.3-.14.2.2 0 0 0-.14.16zM15.94 59.7h-.03a.17.17 0 0 1-.16-.04.12.12 0 0 1-.02-.12l.03-.13.02-.06h-.07l-.98-.03a13.72 13.72 0 0 0-2.77.1h-.03a.13.13 0 0 0-.02.03l-.05.08h.1a33.6 33.6 0 0 1 3.51.45c1.1.17 2.22.36 3.35.43l.8.06a50.93 50.93 0 0 0 4.32.14l.44-.01-.43-.1c-1-.2-2.05-.38-3.18-.52h-.04l-.02.03a.25.25 0 0 1-.26.17 3.36 3.36 0 0 1-.69-.07l-.06-.01a.93.93 0 0 1-.53-.2.12.12 0 0 1-.01-.15l.04-.07-.08-.02c-.1 0-.18-.02-.28-.03l-.65-.1-.06-.01v.05l-.04.18a.13.13 0 0 1-.14.1.2.2 0 0 1-.04 0 8.98 8.98 0 0 1-1.97-.15zM8.22 56.44h.06v-.52h-.05l-.11-.02a.59.59 0 0 1-.21-.04.19.19 0 0 1-.1-.17l-.01-.05h-.05l-.1-.02h-.04l-.01.04a2.85 2.85 0 0 0-.1.62v.04l.04.01a6.53 6.53 0 0 0 .68.1zM7.07 56.23h.05l.18.05.08.02-.01-.1-.02-.15v-.04H7.3a1.15 1.15 0 0 0-.23-.02h-.04v.03a.57.57 0 0 0-.05.13l-.01.06h.06a.11.11 0 0 1 .03.02zM2.09 55.28l.03.01a2.2 2.2 0 0 0 .56.06H3l.14-.01-.01-.06a.19.19 0 0 0-.01-.03 3.03 3.03 0 0 1-.03-.1l-.01-.04h-.04a5.95 5.95 0 0 0-.85-.06h-.02l-.02.02a.34.34 0 0 0-.04.05.08.08 0 0 0-.01.02v.01a.07.07 0 0 0-.01.03v.02a.37.37 0 0 0 0 .04zM6.73 46.26h1.62l.07.06.52.41.43.36.1.08-.02-.13a1.7 1.7 0 0 1 .05-.72l.02-.06h.27v.05a.16.16 0 0 1-.02.05 1.46 1.46 0 0 0 0 .85v.05h.06a2.95 2.95 0 0 1 .73 0h.05l.01-.05a3.97 3.97 0 0 0 .05-.84v-.1H10.08l-.17-.01h1.04v.1a5.5 5.5 0 0 1-.02.74l-.02.1.1-.05 1.2-.8-.02-.04.03.04.14-.09h1.34a.16.16 0 0 0 0-.33h-.71v-.92a.16.16 0 0 0-.33 0v.92h-1.7l-.01-.05-.01-.07v-.03l-.03-.01a.1.1 0 0 1-.04-.04l-.02-.02h-.02a6.77 6.77 0 0 0-1.17-.05h-.04l-.01.06a1.63 1.63 0 0 0-.05.2v.01H7.74a.16.16 0 0 0 .01-.05v-1.09a.16.16 0 0 0-.33 0v1.09a.16.16 0 0 0 .01.05h-.71a.16.16 0 0 0 0 .33z"/><path d="M8.9 44.95h1.17l-.04.19c0 .06-.02.12-.03.17l-.01.07h.06a6.03 6.03 0 0 1 .7.04h.07v-.06l-.02-.4h.72a.16.16 0 0 0 0-.33H9.93a.14.14 0 0 1 .1-.04h.9l-.01-.06-.01-.19v-.04l-.1-.01a2.94 2.94 0 0 0-1.2-.05H9.6l-.05.16a12 12 0 0 1-.06.2v.03H8.9a.16.16 0 0 0 0 .32zM9.12 43.43h.55v.14a.69.69 0 0 0 .03.17l.03.05.05-.01H10l.22.02a1.12 1.12 0 0 0 .21-.02.27.27 0 0 0 .25-.3v-.05h-.03.43a.16.16 0 0 0 0-.33H9.12a.16.16 0 0 0 0 .33zM9.56 41.69h.27v.76a1.72 1.72 0 0 0-.03.43v.1h.06l.5-.03h.06v-.06a5.06 5.06 0 0 0-.06-.57l-.01-.04h-.04l-.15-.02v-.57h.49a.16.16 0 0 0 0-.33h-.5v-.27a.16.16 0 0 0-.32 0v.27h-.27a.16.16 0 0 0 0 .33zM14.8 81.12h-.45a.17.17 0 0 1-.18 0c-.72-.01-1.44-.01-2.16.05.02.51.1 1.02.12 1.54.42 0 .84.02 1.27.04l.05-.24a.14.14 0 0 1 .15-.16h.16c.34-.02.66-.05.99-.1l.03-.28a.27.27 0 0 1 .02-.31 5.18 5.18 0 0 0 0-.54zm-1.5.93-.64.01a.25.25 0 0 1 0-.5l.64-.01a.25.25 0 0 1 0 .5zm1.01.03h-.5c-.17 0-.17-.5 0-.5h.5a.25.25 0 1 1 0 .5zM22.69 87.8h.16a1.84 1.84 0 0 1 .48-.02h.01l.02-.01a.44.44 0 0 0 .27-.35 3.58 3.58 0 0 0 .04-.73l-.04-.27-.02-.18h-1.1l.04.09.04.11a3.66 3.66 0 0 1 .1 1.15zM11.84 78.71h.04l.28-.07.06-.01v-.06c-.02-.23-.03-.58-.03-.76v-.13l-.1.07a.19.19 0 0 1-.04.02.61.61 0 0 0-.33.43.5.5 0 0 0 .06.44zM12.86 79.46l-.02.03v.04a.65.65 0 0 0 .17.42.28.28 0 0 0 .2.09.17.17 0 0 0 .16-.13.5.5 0 0 0-.05-.43.34.34 0 0 0-.46-.02ZM13.93 85.69H14a2.88 2.88 0 0 1 .24.2l.1.09v-.14a13.92 13.92 0 0 0 .03-1.76c-.02-.47-.04-.95-.01-1.43v-.07h-.07l-.2.01H14v.07c0 .25.02.5.04.75a6.9 6.9 0 0 1-.1 2.2z"/><path d="m12.1 79.65-.03.29a5.12 5.12 0 0 0-.02.62v.2l.12-.17a13.59 13.59 0 0 0 .43-.67l.02-.03-.01-.03a.45.45 0 0 1 .22-.58.67.67 0 0 1 .3-.06h.07v-.4l-.08.02a8.24 8.24 0 0 1-1.2.05h-.06v.05l-.03.12-.01.06.07.07a.44.44 0 0 1 .2.46zM13.37 73.8v-.05h-.32l.02.35.07-.01.18-.02h.07V74l-.02-.2ZM13.13 74.26h-.06v.07l.02.74v.08l.08-.02a3.15 3.15 0 0 0 1.05-.63l.19-.15.09-.07-.1-.04a.1.1 0 0 1-.03-.01l-.02-.02h-.03a3.8 3.8 0 0 1-.57.02 3.72 3.72 0 0 0-.62.03zM12.93 78.04a.5.5 0 0 0 .27.28h.05c.06-.02.13 0 .15.03l.01.03h.04a1.1 1.1 0 0 0 .16.02.85.85 0 0 0 .41-.1.53.53 0 0 0 .27-.38.94.94 0 0 0-.25-.74l-.02-.01h-.01a.79.79 0 0 0-.72.08c-.2.15-.48.48-.36.79zM18.1 83.45h.09l-.02-.08c0-.1-.02-.18-.04-.28l-.01-.05h-.06a5.42 5.42 0 0 0-.85.04h-.05v.06l-.02.27v.07h.07c.3-.03.62-.03.9-.03zM14.83 80.89l.02-.02a.08.08 0 0 1 .04-.01h.72v-.06l.01-.16v-.5l.01-.06h-.06c-.34-.03-.8-.04-1.13-.05h-.06v.06a3.27 3.27 0 0 0-.04.7v.1H14.81zM14.56 79.4v.1a1.62 1.62 0 0 0 .03.3l.01.06h.05l.42.01h.07v-.51l.01-.07h-.07a3.22 3.22 0 0 0-.46.04h-.06zM13.36 80.27v-.07l-.02-.02-.03.01a.34.34 0 0 1-.08.01.47.47 0 0 1-.38-.18l-.06-.07-.05.07-.28.42c-.08.12-.15.25-.24.36l-.07.12.13-.01c.52-.04 1.04-.04 1.48-.03h.1l-.04-.1a.98.98 0 0 0-.44-.57zM7.57 79.33H8v-.08c0-.1-.02-.2-.04-.31l-.01-.12-.04-.01a.47.47 0 0 0-.35-.04.21.21 0 0 0-.11.14l-.04.14-.06.19-.02.08h.09z"/><path d="M11.9 79.85c.04-.18.1-.42-.07-.52a.75.75 0 0 0-.06-.04l-.02-.01h-.03a.35.35 0 0 1-.04.02 7.07 7.07 0 0 1-1.3.14h-.08l.03.1a19.17 19.17 0 0 1 .04 2.23V82.45h.1l.08.01.03.01h.01a.09.09 0 0 1 .07.02.53.53 0 0 1 .16.24l.01.04h1.06v-.07a11 11 0 0 0-.06-.78 9.94 9.94 0 0 1-.06-.85.1.1 0 0 1 0-.05.1.1 0 0 1 .08-.07l.07-.01-.01-.07a3.77 3.77 0 0 1-.04-.88 1.06 1.06 0 0 1 .02-.14zM10.92 70.81l-.03.03a.11.11 0 0 1-.03.01l-.01.01a.16.16 0 0 1-.07.04.16.16 0 0 0-.14.12.59.59 0 0 0-.01.08l-.02.08h1.93v-.06l.01-.06v-.1l-.02-.1h-.05a.22.22 0 0 1-.07-.02l-.03-.01h-.03a2.19 2.19 0 0 1-1.4 0zM11.95 68.4h-.07v.07l.02.31v.2l.02.05.13.01a4.14 4.14 0 0 0 .41-.06h.04l.01-.03a3.24 3.24 0 0 0 .22-.48l.03-.09h-.1l-.71.01ZM9.9 79.75l.01-.05a3.38 3.38 0 0 0 .03-.44.16.16 0 0 1 .07-.14l.02-.02v-.03l.02-.26v-.08l-.15.02c-.07 0-.13.02-.2.03a.58.58 0 0 0-.13.04l-.03.02a.13.13 0 0 0-.04.07.47.47 0 0 0-.01.09l-.01.3v.03a.1.1 0 0 1-.1.1c-.61.04-1.21.07-1.79.07h-.06v.06a.23.23 0 0 1-.03.1v.18h.06c.84 0 1.6-.03 2.3-.09zM14.23 73.21l-.01-.06h-.06l-.34.01-.01.07v-.07h-.07v.38h.5v-.07l-.01-.26ZM10.01 83.21h.06l.33.04.08.01-.01-.09-.03-.15a1.46 1.46 0 0 1-.05-.34v-.07h-.09a.16.16 0 0 1-.08 0l-.15-.03h-.08v.08a3.25 3.25 0 0 1 .02.5zM12.81 77.55l-.13.06a.93.93 0 0 1-.26.1h-.06v.06c0 .32 0 .58.03.86v.1h.06a4.29 4.29 0 0 0 .66-.06h.09v-.17l-.04-.01a.66.66 0 0 1-.33-.26.64.64 0 0 1-.06-.54zM11.41 78.9a.09.09 0 0 0 0-.02 1.08 1.08 0 0 1 .17-1.3.72.72 0 0 1 0-.86 1.32 1.32 0 0 1 1.09-.52 56.9 56.9 0 0 0-.2-4.58H10.7c.06 1.29-.04 2.6-.06 3.88-.02.67 0 1.34-.01 2.02 0 .5-.12.98-.16 1.48a6.54 6.54 0 0 0 .94-.1zm-.5-3.48c.04-1.75.24-3.16.31-3.16.09.01.01 1.43-.03 3.17a19.78 19.78 0 0 1-.17 3.16c-.07 0-.15-1.41-.12-3.17zM14.24 79.9l.02-.01v-.02l.05-.08h.04v-.08l.06-.01v-.13a2.52 2.52 0 0 0-.02-.27v-.07l-.07.01a5.04 5.04 0 0 1-.77.07h-.07v.1h.01a.67.67 0 0 1 .01.58l-.03.06.06.03a1.42 1.42 0 0 1 .5.7l.01.04h.05l.04-.02h.04v-.07a3.27 3.27 0 0 1 .05-.81.16.16 0 0 0 .02-.02zM14.3 78.31a.52.52 0 0 1-.14.1 1.23 1.23 0 0 1-.68.15h-.07v.6l.06-.01a4.69 4.69 0 0 0 .88-.05h.05v-.91z"/><path d="M12.64 76.68h-.01l-.05-.01a.47.47 0 0 0-.2.02.7.7 0 0 0-.5.47.25.25 0 0 0 .13.23h.03a.12.12 0 0 1 .06.03l.01.01h.02a1.23 1.23 0 0 0 .14.01 1.1 1.1 0 0 0 .57-.15 1.64 1.64 0 0 0 .17-.16l.02-.03-.01-.04a.58.58 0 0 0-.38-.38ZM22.7 88.33l.01.05h.06l.59.07.36.04v-.52h-.07l-.24-.02h-.02a1.47 1.47 0 0 1-.51.02h-.03a.96.96 0 0 0-.12.05l-.04.02v.04l.02.25zM10.88 68.47l-.02-.04h-.52l.23.57h.05a3.26 3.26 0 0 1 .34-.02h.1l-.04-.08-.14-.43ZM20.62 82.43h.46v-.08l-.02-.22v-.18h-.07l-.37.02h-.06V82.43z"/><path d="M20 81.28a1.2 1.2 0 0 0 .2-.02v-.42c-.88.05-1.75.22-2.64.25-.82.03-1.64.02-2.47 0a4.51 4.51 0 0 1 .01.49h.4a.25.25 0 1 1 0 .5h-.43c0 .12-.02.23-.04.34a.17.17 0 0 1 .02.07.15.15 0 0 1-.14.15l-.32.02c-.06 1.15.1 2.3-.05 3.45a7.17 7.17 0 0 0 1.04-.1c0-.18 0-.41-.02-.6a.22.22 0 0 1 .02-.11.23.23 0 0 1 .24-.2l1.1.03a10.79 10.79 0 0 1-.03-1.53.23.23 0 0 1 0-.06c0-.16.02-.32.03-.47a.23.23 0 0 1 .02-.06.13.13 0 0 1 .1-.14 5.67 5.67 0 0 1 1.1-.07.1.1 0 0 1 .03.01.13.13 0 0 1 .16.1 4.69 4.69 0 0 1 .1.55.1.1 0 0 1 0 .12c.03.26.04.53.05.8a1.77 1.77 0 0 1 .2-.06l.06-1.4a.14.14 0 0 1 .04-.1.14.14 0 0 1 .14-.11 7.16 7.16 0 0 0 .76-.02.12.12 0 0 1 .06.01.14.14 0 0 1 .13.14c0 .51.06 1.02.08 1.52a4.36 4.36 0 0 1 1.18.42 3.42 3.42 0 0 1 .07-1.12.24.24 0 0 1 .03-.06.25.25 0 0 1 .17-.2 3.95 3.95 0 0 1 .46-.12 6.48 6.48 0 0 0-.02-.66c-.45.05-.9.03-1.35.05a.13.13 0 0 1-.12-.06.14.14 0 0 1-.05-.11V82a.24.24 0 0 1-.08-.17.17.17 0 0 1-.04-.06 1.65 1.65 0 0 1-.2.02.25.25 0 1 1 0-.5zm-3.08.7a5 5 0 0 1-.53.03.25.25 0 0 1 0-.5 5 5 0 0 0 .53-.04.25.25 0 0 1 .26.26.26.26 0 0 1-.26.25zm1.24-.02c-.15.02-.47.02-.47.02a.25.25 0 0 1 0-.5 4.18 4.18 0 0 0 .47-.03.26.26 0 0 1 .26.25.26.26 0 0 1-.26.26zm1.32-.1a3.39 3.39 0 0 1-.49.02.25.25 0 0 1 0-.5 3.04 3.04 0 0 0 .35 0 .26.26 0 0 1 .32.17.25.25 0 0 1-.18.32zM21.74 85.28l.08.08.04.03.03.03c.08.08.2.2.3.33l.02.02h.06a1.86 1.86 0 0 0 .23-.1l.06-.02-.02-.05 3.63-1.04a.2.2 0 0 0-.11-.38l-3.7 1.06a.45.45 0 0 0-.07-.06l-.02-.02h-.03l-.39.09zM19.03 88.12c.83.07 1.7.15 2.55.18.2 0 .42.02.68.04h.08v-.07a5.9 5.9 0 0 1-.03-.3v-.07h-.07a13.06 13.06 0 0 1-1.77 0 11.31 11.31 0 0 0-2.06.03l-.59.09.6.05.6.05zM13.54 73.82l.01.19v.06H13.86a3.18 3.18 0 0 0 .41-.02h.06v-.13l-.02-.12v-.05h-.77zM11.53 85.79l.01.05H11.61a11.2 11.2 0 0 0 2.09-.13h.04l.01-.05a.04.04 0 0 0 0-.02c.22-.73.18-1.4.13-2.18l-.03-.54v-.06h-.22c-.04 0-.06.04-.08.07l-.01.01c-.02.02-.04.05-.06.04h-.28c-.8-.03-1.63-.06-2.45-.04a.07.07 0 0 1-.05-.01l-.14-.12.05.23a1.64 1.64 0 0 1 .05.31.06.06 0 0 1-.07.08h-.06l-.27-.02-.29-.03a.08.08 0 0 1-.05-.02l-.03-.02a.07.07 0 0 1-.05-.07v-.12a2.46 2.46 0 0 0-.03-.54v-.04l-.05-.01a.24.24 0 0 0-.04 0h-.05l-.02.05-.02.08-.02.07a.08.08 0 0 1-.07.06c-.15-.01-.35-.02-.54-.05l-.06-.01-.03.16a5.6 5.6 0 0 0-.02.19c0 .02-.02.09-.08.09h-.05a.06.06 0 0 1-.05 0 30.7 30.7 0 0 1-1.01-.41l-.02-.01h-.02a.1.1 0 0 1-.06 0l-.03-.02a.08.08 0 0 1-.03 0 8.65 8.65 0 0 0-.8-.41l-.48-.23-.09-.05v.1l-.02.26v.06l.05.01a3.34 3.34 0 0 1 .45.19 3.18 3.18 0 0 0 .5.2.17.17 0 0 1 .12.09.25.25 0 0 0 .02.02l.02.01c.97.48 1.95.57 2.98.67.4.04.81.07 1.23.14a.05.05 0 0 1 .04.03l.01.02h.02a.07.07 0 0 1 .03.07 6.55 6.55 0 0 1-.07.65 3.72 3.72 0 0 0-.02 1.2z"/><path d="M21.25 82.36v.06h.06c.17 0 .33-.01.5-.03h.07v-.08a3.2 3.2 0 0 0-.06-.25l-.01-.04h-.04a2.71 2.71 0 0 0-.47-.06h-.07v.15c0 .08 0 .17.02.25zM17.94 87.78c1.4-.31 2.86.01 4.3-.11-.02-.72-.02-1.38-.66-1.94a3.63 3.63 0 0 0-2.07-.94c-1.88-.11-1.78 1.61-1.57 2.99Zm.4-1.6a1.15 1.15 0 0 1 .58-.64 1.87 1.87 0 0 1 1.01-.16 2.33 2.33 0 0 1 1.61.82.97.97 0 0 1 .21.52c.01.13-.02.2-.04.2-.04 0-.03-.29-.32-.6a2.42 2.42 0 0 0-1.48-.65 1.75 1.75 0 0 0-.88.11 1 1 0 0 0-.5.47 1.8 1.8 0 0 0-.14.48c-.02.12-.03.2-.05.2-.02 0-.04-.07-.06-.2a1.33 1.33 0 0 1 .07-.56zM18.93 83.99l-.01.28-.01.08h.08a2.64 2.64 0 0 1 .32-.01l.32.03.08.01v-.07l-.01-.24-.02-.06h-.05a8.43 8.43 0 0 0-.62-.08h-.07zM17.54 85.55h-.1l-.57.02h-.06v.06c0 .38-.02.76-.03 1.13l-.03 1.13v.06h.07l.63.04h.08l-.01-.08a6.12 6.12 0 0 1 0-2.27zM17.63 85.17h.05l.02-.04a1.41 1.41 0 0 1 .5-.56l.04-.02v-.28h-.07l-.42.02-.57.03h-.07v.07l.05.74v.06h.07l.39-.02a.05.05 0 0 1 .01 0ZM19.65 83.27l-.01-.18v-.16h-.07c-.18.02-.35.02-.53.01h-.07v.4h.68zM18.95 83.75H19l.6.08.07.02v-.09l-.01-.17v-.07l-.08.01a.24.24 0 0 0-.02 0 .13.13 0 0 1-.02 0h-.6zM17.12 83.71v.44h.06l.5-.02.49-.03h.06v-.07l-.02-.35v-.06h-.07c-.29 0-.63 0-.96.03h-.06zM11.86 67.78l-.01-.04h-.12a1.98 1.98 0 0 0-.36 0h-.07v.07l.01.1v.13h.07l.45-.02h.08l-.01-.07a.76.76 0 0 0-.04-.17zM11.04 68.42l.03.09c.05.11.08.23.12.34a.07.07 0 0 1 0 .05l-.03.08h.09l.33.03h.16v-.07l-.01-.15c0-.1 0-.22-.02-.33v-.06h-.07l-.5.01zM9.22 71.7l-.03-.03-.07.03-.08.02-.11.04.1.08a3.31 3.31 0 0 0 1.16.5l.09.03v-.09c0-.18 0-.22-.05-.22l-.01-.01a2.33 2.33 0 0 0-.95-.33.08.08 0 0 1-.05-.02zM10.22 71.85l-.01-.12a1.35 1.35 0 0 0-.02-.16v-.03l-.03-.02a.18.18 0 0 1-.08-.1l-.01-.08-.07.03-.34.12-.18.07.19.06a2.84 2.84 0 0 1 .44.18zM11.02 70.42h-.05v.23l.04.02a2.44 2.44 0 0 0 .71.11 1.58 1.58 0 0 0 .54-.08l.05-.02v-.05l-.02-.09v-.05h-.06l-.4-.05a2.28 2.28 0 0 0-.8-.02zM11.34 70.02h.06l.37.05h.08v-.65h-.07l-.4.01h-.07v.07l.01.3.01.16zM5.54 83a.3.3 0 0 0-.28-.1.35.35 0 0 0-.3.2v.2l.04.02a.66.66 0 0 0 .26.04.4.4 0 0 0 .3-.1c.03-.03.07-.12-.02-.25zM8.24 83.6c-.02.49-.08.96-.08 1.44 1.03.31 2.08.56 3.14.79-.11-.6.05-1.2.07-1.8-1.08-.15-2.11-.16-3.13-.42Zm.68.87c-.22-.04-.39-.14-.37-.22.01-.08.2-.1.43-.06.22.03.39.12.38.2 0 .08-.2.12-.44.08zm1.2.25c-.18-.04-.3-.14-.28-.22.02-.07.18-.1.34-.05.16.03.29.12.28.2 0 .07-.16.11-.35.07zM5 83.76c.14.1.3.18.45.27l.1.05.01-.23.02-.3v-.1l-.1.04a.82.82 0 0 1-.44.02l-.08-.02v.15a.35.35 0 0 1 0 .07v.03zM7.3 83.2v.1a8.43 8.43 0 0 0-.07 1.32v.18l.05.02.56.19.09.02v-.09c0-.25.02-.5.04-.75l.04-.67v-.05l-.05-.01a5.62 5.62 0 0 1-.57-.22zM5.7 82.9l.01-.13.03-.44v-.1l-.08.04a.08.08 0 0 1-.05 0 3.42 3.42 0 0 0-.77-.08l-.3-.01H4.5l-.02.04a.38.38 0 0 1-.14.18l-.08.06.09.05a9.19 9.19 0 0 1 .54.32l.01.01h.05l.02-.01a.52.52 0 0 1 .63 0zM5.83 75.72a.93.93 0 0 0-.67.26.52.52 0 0 0-.11.4 1.37 1.37 0 0 0 .53.95.2.2 0 0 1 .06.06l.02.03h.25a.17.17 0 0 1 .08-.02h.11l.13-.03.01-.01a1.2 1.2 0 0 0 .33-1.09.65.65 0 0 0-.74-.55zM14.56 79.17l.09-.02a3.47 3.47 0 0 1 .41-.03h.06v-.06c.02-.17.02-.36.02-.52a.17.17 0 0 1 0-.03v-.02a.25.25 0 0 1 0-.08l.01-.08h-.08a1.03 1.03 0 0 1-.4-.04l-.1-.03v.1a8 8 0 0 0 .01.23 4.16 4.16 0 0 1 0 .5zM3.83 81.95l-.02.29v.06l.05.01.12.03H4a.44.44 0 0 0 .22-.05.23.23 0 0 0 .09-.08.16.16 0 0 0 .02-.1.15.15 0 0 0-.03-.09.3.3 0 0 0-.1-.08.65.65 0 0 0-.3-.05h-.07zM6.89 75.1H6.1v.07l.02.16v.05h.05a.92.92 0 0 1 .68.56l.13.3v-.33l-.01-.76v-.06H6.88zM4.9 77.74H3.96v.07c0 1-.01 1.77-.04 2.49v.07h.07l.24-.02a2.61 2.61 0 0 1 .74.01l.08.02v-.08l.04-1.75v-.06l-.04-.02a.47.47 0 0 1-.13-.1.2.2 0 0 1-.05-.15v-.04a1.64 1.64 0 0 1 .01-.36zM6.67 77.42h.11l.4.01h.06v-.81l-.01-.24-.28-.02v.08a1.56 1.56 0 0 1-.22.88zM3.91 80.6l-.06 1.05v.07h.07a.65.65 0 0 1 .56.25l.02.03h.03l.34.02h.2l-.04-.09a.2.2 0 0 1 0-.07l.01-1.25v-.05L5 80.54a2.29 2.29 0 0 0-.77-.02l-.25.01h-.06zM6.8 73.5h-.55l-.01.05a5.41 5.41 0 0 0-.14 1.27v.07h.86v-.07l-.06-.84-.03-.48zM11.5 67.24c.53.02 1.08.04 1.62.04h.07v-.06a1.58 1.58 0 0 0-.04-.34v-.06H9.9l-.02.13a.11.11 0 0 1-.04.07l-.02.02v.16h.06c.54 0 1.09.03 1.62.04zM8.8 71.08l.06.44.01.08.08-.03.66-.24.6-.22.04-.01.01-.04a.95.95 0 0 1 .03-.13l.03-.1h-.1l-1.4.05H8.7l.07.1a.2.2 0 0 1 .03.1zM7.33 66.65l.02.07a.27.27 0 0 0 .12.16l.04.02.03-.02h.02l.01.86a.22.22 0 0 0 0 .34l.02.82a.23.23 0 0 0-.06.01.24.24 0 0 0-.1.34.11.11 0 0 0 .16.04l.02 1.5a.12.12 0 0 0 .24 0v-.03l.32-.02-.02-.07a5.4 5.4 0 0 0-.07-.28l-.05-.2-.01-.05h-.05l-.07-.01h-.06v-.74a.15.15 0 0 0 .03 0c.14-.08.1-.26.02-.36a.39.39 0 0 0-.06-.07l-.01-.75a.25.25 0 0 0 .22-.42.12.12 0 0 0-.08-.07.28.28 0 0 0-.03 0 .4.4 0 0 0-.12-.05l-.01-.8h.26l-.02-.08a.25.25 0 0 0-.25-.2v-.75a.12.12 0 0 0-.01-.02.59.59 0 0 0 .06 0c.2-.02.2-.34 0-.32a.37.37 0 0 1-.23-.05.16.16 0 0 0-.16.28.73.73 0 0 0 .1.05.11.11 0 0 0 0 .06v.77c-.05 0-.1 0-.16.02zm.51 1.31.02-.01c.01.01 0 .02-.02.01zM7.34 74.86v.07h.06l.72-.06c.26-.02.54-.05.81-.05H9v-.07l-.14-1.3c-.05-.36-.13-.73-.2-1.08-.08-.34-.15-.7-.2-1.05v-.06H8.4l-.36-.02a6.7 6.7 0 0 0-.75-.03h-.06v.06a17.46 17.46 0 0 0 .05 2.71l.06.88zM12.96 71.28a.2.2 0 0 1 0 .18l-.05.1h.11a3.85 3.85 0 0 0 1.04-.26l.37-.13-1.51.01zM24.02 95.46a4.61 4.61 0 0 0-.81-.24l-.52-.08a7.37 7.37 0 0 1-1.19-.23c-1.06-.32-2.2-.62-3.59-.94a29.17 29.17 0 0 1-3.34-1.06l-.16-.06c-.62-.22-1.25-.41-1.87-.6-.5-.16-1.04-.32-1.56-.5a22.5 22.5 0 0 1-8.55-5.18l-.1.09a9.45 9.45 0 0 0 .96 1.2 17.03 17.03 0 0 0 2.65 2.11l.57.4a9.6 9.6 0 0 0 1.88.95c.4.16.8.33 1.18.53 1.53.8 3.15 1.45 4.72 2.08.83.34 1.7.68 2.54 1.05 1.27.56 2.53 1.07 3.94 1.3a14.73 14.73 0 0 1 1.85.4 5.12 5.12 0 0 0 1.49.3h.12v-.06c.05-.4.1-.84.17-1.27l.01-.05-.05-.02a9 9 0 0 1-.34-.12zM10.18 76.13h-.13c-.16 0-.34-.01-.39.11a.22.22 0 0 1-.06.1l-.02.02v.03l.02.27a2.83 2.83 0 0 1 .03.79v.72l-.01.37v.08l.08-.02.22-.02.1-.01h.05l.03-.2a7.38 7.38 0 0 0 .08-1.12V76.2zM.72 82.49a.1.1 0 0 1 .03.02.8.8 0 0 0 .46.25l.08.02v-.09c-.03-.26-.03-.49.17-.57.2-.08.39.06.58.2l.15.12.01-.12a1.2 1.2 0 0 1 .02-.14v-.04l-.03-.03a4.94 4.94 0 0 0-.62-.41l-.03-.02-.02.01a.15.15 0 0 1-.06.01 7.23 7.23 0 0 0-1.4.18L0 81.9l.01.06a2.17 2.17 0 0 0 .13.43l.01.04H.2a2.06 2.06 0 0 1 .48.04.08.08 0 0 1 .04.02zM23.35 91.5l-.04.05a1.86 1.86 0 0 0-.42.88l-.01.07.07.01.19.01c.15 0 .28-.03.33-.13.12-.23.15-.67-.07-.85zM23.97 88.51h.06a14.95 14.95 0 0 0 2.1.06l.22-.02-.18-.1a10.98 10.98 0 0 0-2.12-.96l-.1-.03.01.1c.02.3.02.6.01.89z"/><path d="M2.2 82.63a1.56 1.56 0 0 1-.24-.15 2.26 2.26 0 0 0-.08-.06l-.03-.03c-.09-.06-.21-.15-.33-.11-.1.04-.1.21-.06.48v.05h.05a1.37 1.37 0 0 1 .25.06.82.82 0 0 1 .38.36l.1.15.02-.18.05-.48v-.07h-.07a.08.08 0 0 1-.04-.02zM2.79 80.22v.05l.04.02a.42.42 0 0 1 .28.26.5.5 0 0 1-.14.54l-.02.02v.1l.05.02c.36.18.32.58.28.96l-.02.2v.07l.06.01a1.16 1.16 0 0 1 .21.04l.08.03v-.09c.06-.6.1-1.25.13-1.98a.16.16 0 0 1 0-.06c.04-.94.05-1.87.05-2.59v-.07h-.07l-.16.03H3.5v.05a3.6 3.6 0 0 0-.03.83v.3a.18.18 0 0 1-.04.12.19.19 0 0 1-.2.1 3.62 3.62 0 0 1-.38-.1l-.08-.03v1.17z"/><path d="M2.7 81.04h.04l.03-.02a.32.32 0 0 0 .19-.35.27.27 0 0 0-.22-.24H2.7a.2.2 0 0 1-.1.04h-.05a.25.25 0 0 0-.13.27.4.4 0 0 0 .28.3zM1.82 81.4l.02.02.25.16.08.05.02-.08a.53.53 0 0 1 .28-.3l.1-.06-.09-.06a.52.52 0 0 1-.18-.2l-.02-.06-.06.02a.12.12 0 0 1-.06.01l-.21-.03-.07-.01v.07a2.77 2.77 0 0 1-.08.4v.05zM4.8 82.97l-.04-.02c-.1-.05-.2-.1-.3-.17a2.76 2.76 0 0 0-.5-.26l-.06-.01-.11-.02-.05.45.03.02a4.96 4.96 0 0 1 .18.13l.73.48.11.07v-.16a1.49 1.49 0 0 1 0-.4zM2.6 81.37a.34.34 0 0 0-.26.34v.05l.03.02c.22.17.43.36.64.54l.09.08.02-.15a1.06 1.06 0 0 0-.05-.74.41.41 0 0 0-.47-.14zM22.97 91.72a1.53 1.53 0 0 1 .2-.28l.04-.04-.04-.04a3.63 3.63 0 0 1-.5-.77l-.04-.1-.07.1-.08.11-.02.03.02.03.11.33a3.25 3.25 0 0 0 .26.63l.06.1zM7.57 80.21h-.13l-.03.01a.21.21 0 0 1-.2 0 .17.17 0 0 1-.09-.16v-.3h-.07l-.66.01H6.3v.07c0 .52-.04 1.05-.08 1.56l-.03.44v.04l.03.02c.2.11.41.21.61.3.21.1.43.2.63.32l.1.05v-.58c-.02-.56-.03-1.14.01-1.7zM8.1 75.04c-.22.03-.46.05-.69.06h-.06v.07c.01.28.02.54.01.78v.07h.06a15.78 15.78 0 0 0 1.6.01h.07v-.07l-.07-.91v-.06h-.07c-.28 0-.57.03-.84.05zM7.22 78.39v.02H7.2l.02.55.12-.21a.12.12 0 0 1 .01-.02c.16-.21.42-.16.68-.06a.1.1 0 0 1 .04.03l.02.02a.08.08 0 0 1 .04.07l.02.2.03.26v.07h.07l1-.05h.06v-.07c0-.19 0-.39.11-.48l.03-.02v-.66l.02-.34-.08.02a1.8 1.8 0 0 1-.46.02H7.47l.02.08a1.24 1.24 0 0 1 .03.32.2.2 0 0 1-.14.18h-.02l-.01.02a.24.24 0 0 1-.07.05zM6.14 77.78a.14.14 0 0 0-.03.01h-.02c-.16.03-.31.05-.47.06l-.32.04h-.05v.06a1.4 1.4 0 0 0-.02.15v.06h.06a.22.22 0 0 1 .06.02h.04a8 8 0 0 1 1.63-.1h.04a.33.33 0 0 1 .04-.02l.04-.02V78l-.03-.14v-.05h-.27l-.68-.02zM6.9 83.53h-.08c-.2 0-.42 0-.62-.02l-.38-.01h-.07v.06l-.02.24v.37l.03.02a10.17 10.17 0 0 0 .94.42l.16.06v-.1c0-.3 0-.63.03-.96z"/><path d="M5.4 81.76v.07l.41.02.04-.46c.04-.58.08-1.2.08-1.8a.17.17 0 0 1 .18-.17h.02a.21.21 0 0 1 .08-.02H6.82v-.07a4.74 4.74 0 0 0 .02-.67l-.01-.29a.21.21 0 0 1 0-.04l.02-.08h-.08a8.15 8.15 0 0 0-1.25.08l-.04.01-.01.04a.19.19 0 0 1-.02.05l-.01.02v.03a.19.19 0 0 1 .02.07c0 .55-.02 1.1-.03 1.64-.02.51-.03 1.05-.03 1.57zM14.21 71.43a4.35 4.35 0 0 1-1.22.3h-.07l.03.36.1-.05a5.33 5.33 0 0 1 1.22-.44c.18-.04.34-.1.5-.16a.51.51 0 0 0 .21-.01.97.97 0 0 0 .13-.05l.06-.02a1.46 1.46 0 0 0 .08.34c.04.12.23.07.19-.05a1.4 1.4 0 0 1-.07-.34 1.78 1.78 0 0 1 .25-.03 9.86 9.86 0 0 0 1.05-.08l.06.62a.09.09 0 0 0-.04.1l.05.15a.1.1 0 0 0 .2-.03 8.26 8.26 0 0 0-.08-.9.1.1 0 0 0 0-.08 4.27 4.27 0 0 1-.03-.8c0-.14-.2-.13-.2 0a4.08 4.08 0 0 0 .02.75 9.11 9.11 0 0 1-1.1.07l-.2.01.02-.66a.1.1 0 0 0-.2 0c0 .22-.02.47-.01.7-.07.03-.13.07-.2.09l-.05-.01h-.05l-.05.02a.32.32 0 0 1-.03 0 .1.1 0 0 0-.1.04l-.47.16zM9.66 75.79a1.56 1.56 0 0 1 .37-.03h.16v-.25l.05-1.27.04-1.4v-.07H9.1l.03.08.02.13v.06h.07a3.59 3.59 0 0 1 .55 0 .22.22 0 0 1 .07.02h.02a.15.15 0 0 1 .14.18 3.55 3.55 0 0 0 0 .47c.02.39.05.82-.16 1.04a.53.53 0 0 1-.4.15h-.07v.08l.07.8v.11l.1-.05a.54.54 0 0 1 .11-.05zM7.73 82.57v.05l.04.01c.24.1.56.24.88.36l.08.03.02-.15.02-.15a.1.1 0 0 1 .01-.04l.01-.02a.1.1 0 0 1 .04-.07.08.08 0 0 1 .07-.01 4.37 4.37 0 0 0 .52.06h.05l.01-.05a.36.36 0 0 0 .02-.07.14.14 0 0 1 .02-.05v-.02c0-.03.03-.08.08-.07.17 0 .35.02.52.04h.07v-.06l.01-.6c.01-.52.02-1.06 0-1.6v-.07l-.07.01a.24.24 0 0 0-.03 0c-.7.07-1.42.1-2.3.1h-.06v.07c-.04.58-.03 1.17-.02 1.73l.01.57zM7.4 77.58h.09l.02-.01h1.1l.62-.02a.23.23 0 0 0 .18-.06.36.36 0 0 0 .04-.29v-.1l-.02-.17-.02-.45-.02-.08h-.05c-.62.01-1.25.03-1.87 0H7.4v.26a8.26 8.26 0 0 1 .01.84zM9.07 72.54l.01.05h.05c.15.02.3.02.45.02h.33l.56-.01-.43-.13a3.97 3.97 0 0 1-.96-.38L8.95 72l.03.16.1.38z"/><path d="M9.35 74.54h.06a.22.22 0 0 0 .17-.08c.15-.16.1-.57.07-.91l-.01-.15h-.06a2.53 2.53 0 0 0-.28 0h-.07v.07l.1.97zM16.6 79.13v.05a.25.25 0 0 1-.04.07l-.01.02v.02l.03.6v.07h.33l.02-.03a.07.07 0 0 1 .04-.02 1.84 1.84 0 0 0 .28-.13l.13-.07.04-.01v-.57h-.76ZM17.15 80.01l-.04.03v.05c.06.24.11.48.14.72l.01.06h.06c.21 0 .4-.02.58-.03l.12-.01-.02-.17a3.98 3.98 0 0 1-.04-.99v-.05l-.04-.02a.46.46 0 0 0-.16-.03h-.07v.09a.5.5 0 0 1 0 .06.09.09 0 0 1-.06.08 1.52 1.52 0 0 0-.35.15l-.13.06zM16.39 79.34h-.07c-.24.03-.49.02-.73.02h-.18a.13.13 0 0 1-.02 0l-.07-.02v.55h.05l.3.03a.07.07 0 0 1 .04.01l.03.01a.09.09 0 0 1 .04.01l.03.01h.6v-.07c0-.13 0-.31-.02-.48zM15.37 77.4h-.02a.17.17 0 0 1-.04-.09.4.4 0 0 0-.22-.24 1 1 0 0 0-.72-.05l-.13.05.12.07a1.12 1.12 0 0 1 .22.2.11.11 0 0 1 .02.04l.01.01a.07.07 0 0 1 .01.05 1.2 1.2 0 0 1-.04.24l-.04.14c-.01.1-.04.25.15.3a1.21 1.21 0 0 0 .32.05.45.45 0 0 0 .31-.1.08.08 0 0 1 .04-.02l.05-.01V78a2.34 2.34 0 0 0-.03-.57zM14.5 75.33c-.55.18-.8.63-.7 1.28l.01.04h.04a.88.88 0 0 1 .18.1l.03.01.04-.02a1.3 1.3 0 0 1 1.1-.02l.07.03.02-.06a1.26 1.26 0 0 0-.15-1.2.57.57 0 0 0-.63-.16zM12.72 86.17a.19.19 0 0 1 .08 0h.58l.74.01h.16l-.12-.11a2.36 2.36 0 0 0-.22-.2l-.02-.02-.04.01a7.14 7.14 0 0 1-1.38.15h-.6l.8.17zM15.69 88.54a5 5 0 0 0 .02-.38.45.45 0 0 1 .36-.3l.44.02.06-2.25-.5-.02c.02.24.02.53.02.53a.25.25 0 0 1-.05.16.21.21 0 0 1-.18.16 11.8 11.8 0 0 1-2.68.15 4.9 4.9 0 0 0 .37 1.8 9.75 9.75 0 0 0 2.14.13zm-2.22-1.02c0-.08.59-.15 1.31-.16.74 0 1.32.17 1.3.24 0 .08-.58.05-1.3.05-.72 0-1.3-.06-1.3-.13zM18.8 80.74l.27-.03v-.06a.6.6 0 0 1 .03-.18v-.07a2.77 2.77 0 0 1-.07-.47v-.1c-.02-.17-.04-.42-.2-.53a.72.72 0 0 0-.25-.1h-.05l-.02.05a3.82 3.82 0 0 0-.23 1.48v.07h.08l.45-.06z"/><path d="M21.58 88.74c-1.8-.06-3.58-.33-5.38-.36l-.03.42a.26.26 0 0 1-.25.25.16.16 0 0 1-.04 0 .19.19 0 0 1-.05 0 10.36 10.36 0 0 1-2.53-.18.23.23 0 0 1-.18-.2 5.54 5.54 0 0 1-.45-2.05.25.25 0 0 1-.05 0c-2.12-.43-4.3-.87-6.3-1.7a13.03 13.03 0 0 1-2.58-1.45c-.4-.28-.79-.63-1.17-.97-.03.36-.08.7-.12 1.06a.15.15 0 0 1-.12.14.12.12 0 0 1-.16-.03l-.28-.38a.61.61 0 0 0-.46-.25.17.17 0 0 1-.12-.02 1.02 1.02 0 0 1-.71-.33 1.33 1.33 0 0 0-.26-.02c.28.53.69 1.03.88 1.64a8.18 8.18 0 0 0 .45 1.1c2.63 3.06 6.4 5.22 10.21 6.38 2.25.68 4.42 1.55 6.7 2.1 1.1.26 2.19.64 3.29.88.54.12 1.13.11 1.65.29l.86.29a10.47 10.47 0 0 1 .4-1.6c.32-.93.9-1.86 1.06-2.82a.23.23 0 0 1 0-.13c.14-.36.3-.7.43-1.07a2.3 2.3 0 0 0 .19-.76c-1.6.18-3.27-.18-4.88-.23Zm-17.5-2.3c-.02.04-.22-.04-.5-.23a5.78 5.78 0 0 1-.96-.88c-.34-.37-.63-.71-.84-.96-.22-.24-.35-.4-.32-.43.02-.03.2.08.46.29a9.8 9.8 0 0 1 .91.91c.33.37.64.7.88.92.23.21.39.35.36.38zm14.86 6.63-1.7-.45-2.5-.69c-.47-.13-.97-.27-1.48-.43l-.78-.24-.8-.27-.4-.13-.38-.15c-.27-.1-.51-.22-.76-.33-.48-.24-.94-.48-1.36-.72l-1.21-.68-1.07-.57-.46-.27-.4-.25c-.25-.17-.46-.3-.62-.43a2.74 2.74 0 0 1-.5-.42 2.85 2.85 0 0 1 .56.32c.17.12.4.24.64.4l.4.23.47.24 1.08.54c.4.2.8.43 1.23.66.43.23.88.47 1.36.7.24.1.48.22.74.32l.38.14.4.14.8.27.76.24 1.47.44a178.97 178.97 0 0 1 4.16 1.29 3.05 3.05 0 0 1 .6.23 2.8 2.8 0 0 1-.63-.13zm3.07.97c-.73-.26-1.36-.45-1.34-.53.02-.07.66-.01 1.43.26l.95.33c.24.08.39.16.38.2 0 .07-.67 0-1.42-.26zm1.71-1.64c-.17.42-.56.34-.94.33a.15.15 0 0 1-.14-.17.14.14 0 0 1 0-.08 3.92 3.92 0 0 1 .13-.47 4.8 4.8 0 0 1-.53-1.2.14.14 0 0 1 0-.05.12.12 0 0 1 0-.13 2.05 2.05 0 0 1 .31-.4.15.15 0 0 1 .22.02.15.15 0 0 1 .05.07 3.12 3.12 0 0 0 .6.96c.4.17.46.74.3 1.12zm-.25-2.8-2.7-.04a23.32 23.32 0 0 1-2.7-.21 3.99 3.99 0 0 1-1.08-.26c0-.04.43 0 1.12.06.68.05 1.62.1 2.67.12 1.05.03 2 .06 2.7.12.69.07 1.1.14 1.1.18 0 .04-.43.04-1.11.03zm1.9.2c-.15 0-.28-.07-.28-.15 0-.08.13-.14.28-.14.16 0 .28.07.28.14 0 .08-.12.15-.28.15zM6.93 83.21l-.05-.01-.31-.14a2.65 2.65 0 0 0-.62-.24l-.07-.01v.07l-.03.38v.07h.06l.26.01.6.02h.14zM15.83 80.3l-.04.34v.23h.07l.77.01h.46v-.08a5.4 5.4 0 0 0-.12-.59l-.01-.05h-1.1zM3.74 73.55a.1.1 0 0 0 .1-.1v-.18l2.08-.38c.28-.02.56-.04.85-.04h.06v-.07l-.01-.43v-.12l-.1.06a3.15 3.15 0 0 1-.98.37l-.5.13-.09.02v.01l-1.31.24v-.41a.1.1 0 0 0-.2 0v.8a.1.1 0 0 0 .1.1ZM3.7 71.03l.14.04a1.66 1.66 0 0 0 .13.61c.04.12.24.07.19-.05a1.54 1.54 0 0 1-.12-.49 2.38 2.38 0 0 0 .27.06 14.03 14.03 0 0 0 2.44.32c.04 0 .08-.02.09-.07 0-.12.01-.25.03-.37v-.01a.07.07 0 0 0-.01-.06.06.06 0 0 0-.06-.02H4.2a1.96 1.96 0 0 1-.16-.05 1.51 1.51 0 0 1 .07-.37c.04-.13-.15-.18-.2-.06a1.72 1.72 0 0 0-.06.36l-.04-.02c-.12-.05-.22.12-.1.18z"/></svg>